<?xml version="1.0" standalone="no"?>
<!DOCTYPE svg PUBLIC "-//W3C//DTD SVG 20010904//EN"
 "http://www.w3.org/TR/2001/REC-SVG-20010904/DTD/svg10.dtd">
<svg version="1.0" xmlns="http://www.w3.org/2000/svg"
 width="2194.000000pt" height="2194.000000pt" viewBox="0 0 2194.000000 2194.000000"
 preserveAspectRatio="xMidYMid meet">
<metadata>
Created by potrace 1.14, written by Peter Selinger 2001-2017
</metadata>
<g transform="translate(0.000000,2194.000000) scale(0.100000,-0.100000)"
fill="#000000" stroke="none">
<path d="M8922 15348 c-18 -18 -15 -28 8 -28 21 0 25 7 12 27 -6 10 -11 10
-20 1z"/>
<path d="M8754 15265 c-3 -13 0 -41 7 -62 7 -21 17 -65 24 -98 9 -51 8 -67 -7
-108 -13 -35 -16 -53 -8 -67 24 -45 14 -94 -77 -355 -48 -136 -59 -157 -118
-220 -26 -27 -64 -75 -85 -106 -73 -106 -169 -169 -256 -169 -40 0 -64 -9 -64
-23 0 -15 60 -108 89 -137 47 -48 79 -137 91 -253 12 -118 6 -170 -31 -281
-29 -87 -33 -91 -101 -125 -71 -36 -88 -37 -146 -11 -74 34 -103 35 -137 6
-43 -37 -59 -40 -105 -16 -43 22 -74 20 -84 -6 -4 -11 18 -40 70 -92 53 -52
85 -93 101 -131 14 -31 34 -74 44 -97 11 -22 28 -81 39 -131 11 -49 34 -123
51 -164 24 -55 33 -94 37 -155 10 -172 -57 -253 -222 -264 -56 -3 -81 -9 -86
-20 -4 -8 -12 -25 -18 -37 -24 -47 -15 -79 36 -123 129 -113 263 -313 304
-456 20 -68 23 -101 22 -239 0 -186 -9 -217 -100 -341 -102 -139 -284 -211
-440 -174 -49 12 -56 12 -74 -5 -33 -30 -26 -69 19 -104 21 -17 54 -55 72 -85
19 -30 55 -85 80 -123 52 -78 69 -120 69 -174 0 -44 -18 -89 -35 -89 -18 0
-51 -41 -70 -85 -9 -22 -28 -53 -43 -68 -42 -44 -26 -115 32 -133 11 -4 37
-19 56 -34 19 -16 45 -31 57 -34 11 -4 29 -19 38 -34 10 -15 30 -37 46 -50 33
-27 69 -102 69 -145 0 -40 -35 -155 -57 -188 -59 -88 -139 -171 -160 -167 -24
4 -72 138 -72 201 -1 26 -7 62 -15 80 -7 18 -16 59 -20 92 -4 33 -16 80 -27
104 -10 24 -19 54 -19 67 0 13 -14 54 -31 91 -18 36 -32 79 -31 94 0 18 -7 33
-22 43 -13 8 -50 38 -82 66 -69 61 -173 124 -259 157 -75 29 -178 123 -192
174 -6 19 -8 102 -6 184 5 179 20 240 98 402 30 62 55 117 55 123 0 28 65 221
95 280 51 102 67 196 54 303 -15 120 -25 141 -97 215 -80 81 -128 118 -180
136 -22 8 -57 23 -79 34 -30 16 -69 22 -161 28 l-121 7 -33 -39 c-80 -92 -181
-183 -211 -189 -73 -15 -107 -39 -163 -112 -63 -82 -112 -124 -166 -143 -35
-13 -40 -12 -95 18 -48 25 -64 41 -90 88 -27 50 -32 70 -38 158 -8 133 9 330
46 521 24 129 48 328 49 401 0 47 8 111 20 155 25 93 25 118 0 223 -24 104
-68 179 -140 241 -67 57 -105 74 -195 87 -38 6 -82 17 -97 24 -52 26 -156 14
-278 -32 -19 -7 -52 -15 -72 -19 -40 -6 -140 -76 -184 -128 -15 -18 -77 -79
-138 -136 -84 -78 -129 -111 -183 -137 -83 -39 -93 -39 -194 12 -81 40 -153
121 -202 229 -18 39 -18 43 3 160 12 66 23 134 26 151 2 17 15 46 29 64 16 22
25 47 25 71 0 20 8 63 19 95 16 50 17 69 9 124 -6 36 -16 77 -24 92 -8 15 -14
36 -14 48 0 27 -71 102 -144 151 -51 34 -66 39 -115 39 -82 0 -180 -18 -229
-42 -49 -23 -120 -95 -139 -139 -7 -17 -39 -58 -71 -92 -32 -34 -69 -79 -81
-99 -23 -39 -96 -88 -130 -88 -47 0 -159 138 -253 309 -21 38 -36 39 -74 6
-16 -14 -45 -28 -64 -31 -40 -6 -121 -31 -165 -49 -41 -17 -122 -90 -150 -135
-36 -56 -54 -138 -44 -196 4 -27 8 -70 8 -97 1 -33 9 -60 26 -87 35 -55 49
-123 35 -169 -32 -102 -56 -122 -174 -147 -39 -8 -94 -26 -123 -40 -48 -23
-148 -113 -179 -160 -23 -34 -34 -124 -26 -204 6 -64 13 -82 42 -120 18 -25
54 -62 79 -84 25 -21 71 -61 101 -90 95 -89 187 -145 319 -197 41 -16 87 -41
103 -56 16 -16 62 -46 101 -68 91 -51 111 -84 102 -170 -7 -66 -8 -67 -50
-120 -52 -65 -80 -73 -276 -80 -202 -8 -256 -21 -361 -92 -74 -48 -141 -128
-178 -207 -20 -46 -22 -60 -18 -210 5 -174 7 -183 70 -278 37 -56 77 -89 281
-230 86 -60 178 -112 237 -133 19 -7 64 -26 100 -43 73 -35 239 -92 264 -92
10 0 36 -11 59 -24 23 -14 65 -30 92 -35 28 -6 77 -24 110 -40 33 -16 84 -40
114 -52 31 -14 68 -41 90 -65 36 -41 71 -130 71 -181 0 -37 -21 -105 -39 -127
-19 -22 -84 -56 -108 -56 -10 0 -43 -16 -73 -35 -30 -19 -65 -35 -78 -35 -12
0 -35 -6 -50 -14 -15 -7 -47 -16 -72 -19 -137 -18 -253 -112 -334 -271 -27
-56 -30 -69 -29 -156 0 -90 2 -99 40 -177 22 -44 43 -90 45 -101 4 -12 30 -33
69 -52 35 -17 84 -47 108 -65 26 -21 79 -46 137 -64 51 -17 116 -42 143 -56
55 -27 109 -33 117 -11 7 18 252 13 286 -6 19 -10 144 -19 373 -28 52 -3 128
-25 138 -42 9 -14 24 -18 65 -18 57 0 198 -36 296 -76 145 -59 216 -195 216
-413 0 -81 3 -106 15 -115 9 -6 20 -39 25 -76 15 -97 16 -100 56 -160 31 -47
35 -59 26 -82 -11 -29 -1 -38 42 -38 12 0 26 -4 31 -8 6 -5 26 -15 45 -22 52
-19 88 -35 153 -64 32 -14 60 -26 62 -26 5 0 121 -52 165 -74 14 -7 60 -32
103 -55 44 -24 75 -37 72 -29 -3 8 2 21 11 29 40 33 362 5 549 -48 50 -14 142
-32 205 -40 122 -14 150 -20 325 -58 61 -13 121 -24 135 -24 33 -1 327 -69
365 -86 37 -16 172 -60 245 -80 34 -9 104 -46 185 -98 120 -77 250 -157 458
-281 45 -26 105 -56 132 -66 66 -23 127 -54 188 -96 40 -28 59 -34 101 -34 67
0 170 -32 196 -60 3 -4 41 -23 85 -44 44 -21 87 -41 95 -46 8 -4 51 -15 95
-25 44 -9 89 -21 100 -25 11 -5 57 -11 103 -14 80 -6 82 -6 70 13 -10 17 -9
25 8 48 38 51 38 69 2 96 -18 13 -53 34 -78 45 -49 23 -309 125 -350 137 -14
4 -52 21 -84 36 -33 16 -63 29 -67 29 -19 0 -506 239 -549 270 -14 10 -52 32
-85 50 -110 57 -317 190 -354 227 -13 13 -27 23 -31 23 -10 0 -84 197 -111
295 -23 85 -23 163 1 380 5 50 9 224 9 388 0 297 5 386 23 421 7 12 7 16 -1
12 -13 -8 -31 25 -31 56 0 45 38 62 71 32 9 -8 44 -19 77 -24 33 -4 69 -13 80
-19 12 -6 32 -11 45 -11 47 0 154 -40 199 -74 50 -39 93 -103 103 -156 9 -48
-26 -97 -133 -188 -83 -72 -123 -90 -177 -79 -19 3 -32 -3 -51 -26 -29 -35
-28 -57 4 -73 13 -6 36 -24 52 -39 27 -26 30 -26 45 -11 9 9 18 16 20 16 2 0
68 -13 147 -29 169 -35 348 -45 750 -46 263 0 268 0 290 -22 21 -22 22 -23 5
-58 -28 -59 -15 -72 104 -100 44 -11 208 25 282 61 37 18 84 38 105 45 35 11
180 80 282 134 25 13 68 36 96 51 29 14 86 55 128 90 43 35 83 64 90 64 7 0
22 13 34 29 12 16 35 37 50 47 16 9 37 31 47 48 19 33 81 96 95 96 12 0 96 85
167 171 34 41 104 137 155 213 105 158 133 185 169 166 34 -18 60 -51 130
-165 33 -55 79 -129 101 -165 22 -36 51 -85 65 -110 14 -25 38 -59 53 -77 15
-17 42 -58 59 -90 17 -32 55 -89 84 -128 29 -38 68 -95 86 -125 18 -30 38 -58
43 -61 5 -3 35 -43 66 -87 31 -45 85 -116 120 -159 34 -43 84 -105 110 -137
26 -32 68 -82 93 -110 26 -28 65 -76 88 -106 40 -53 158 -195 271 -325 30 -34
63 -74 73 -88 9 -15 52 -44 95 -66 66 -35 107 -70 274 -233 195 -191 218 -213
373 -346 44 -38 91 -85 104 -104 23 -33 29 -35 110 -47 74 -11 97 -10 160 3
41 8 74 17 75 18 1 2 11 17 24 35 27 39 28 50 5 58 -10 3 -34 28 -55 54 -22
30 -47 51 -65 55 -36 9 -110 44 -148 70 -51 36 -146 139 -177 193 -16 29 -44
61 -62 72 -57 36 -107 79 -265 229 -400 381 -732 729 -859 900 -21 27 -63 79
-94 113 -68 78 -217 271 -277 359 -25 36 -65 93 -90 126 -25 34 -52 70 -58 80
-7 11 -63 95 -124 188 -61 93 -118 185 -126 204 -27 64 -2 98 82 113 296 50
677 138 755 172 19 8 76 32 125 52 119 49 258 123 375 200 52 34 113 74 135
87 72 45 78 124 15 203 -17 21 -30 41 -30 45 0 13 58 81 153 180 51 53 126
134 167 180 41 46 109 117 150 157 41 40 86 84 100 98 14 14 31 25 38 25 14 0
35 -37 27 -50 -3 -5 -1 -47 5 -92 6 -46 15 -130 21 -188 17 -197 30 -345 34
-415 2 -38 12 -95 20 -125 9 -30 20 -74 25 -97 16 -72 51 -183 61 -189 5 -3 9
-13 9 -24 0 -10 6 -20 14 -23 14 -6 66 -99 66 -118 0 -5 8 -22 19 -37 10 -15
58 -87 107 -161 54 -81 107 -149 134 -171 25 -20 77 -66 116 -103 85 -80 238
-198 292 -226 22 -11 52 -31 68 -44 40 -33 211 -124 276 -146 130 -45 172 -62
186 -73 8 -7 26 -11 39 -10 28 4 68 -19 100 -57 24 -28 28 -56 14 -93 -9 -25
-120 -144 -131 -141 -8 2 -85 -115 -125 -193 -20 -38 -50 -87 -67 -108 -29
-36 -58 -115 -58 -157 0 -21 -67 -107 -135 -173 -27 -27 -66 -80 -85 -116 -75
-143 -111 -198 -266 -405 -28 -38 -62 -80 -74 -93 -102 -108 -210 -259 -210
-295 0 -9 8 -32 17 -52 l17 -35 68 0 c38 0 97 5 132 12 57 11 65 15 69 38 8
38 152 252 223 330 22 24 59 82 145 225 23 39 57 93 75 120 18 28 38 73 44
100 12 56 32 91 66 118 13 10 26 28 30 40 4 12 17 36 30 52 12 17 32 51 43 77
11 26 28 51 39 57 23 12 76 90 118 171 15 30 40 73 54 95 15 22 39 63 54 90
30 57 70 124 106 178 46 67 107 73 158 15 72 -84 294 -300 347 -339 33 -24 62
-46 65 -49 35 -37 298 -186 360 -205 14 -4 39 -13 55 -20 74 -30 176 -66 245
-85 41 -11 89 -25 105 -31 17 -5 71 -12 120 -14 115 -5 165 -11 176 -22 7 -7
204 0 329 11 217 21 560 120 859 247 53 23 104 47 115 55 11 8 26 14 32 14 7
0 28 16 47 35 19 19 45 35 56 35 23 0 46 14 193 117 54 37 147 102 207 143 60
41 112 84 115 95 7 21 94 102 116 107 21 5 95 85 220 239 30 37 80 98 111 136
133 161 213 295 418 698 11 22 34 76 52 120 17 44 49 125 71 180 21 55 45 120
52 145 8 25 25 83 39 130 59 199 93 719 62 957 -9 67 -23 146 -31 175 -33 115
-114 434 -114 446 0 8 -15 32 -33 55 -47 61 -83 142 -108 240 -13 51 -65 167
-88 192 -9 11 -37 58 -60 105 -24 47 -47 90 -51 95 -5 6 -18 35 -29 65 -11 30
-39 82 -61 115 -21 33 -40 65 -40 70 0 6 -30 44 -66 85 -36 41 -76 95 -88 120
-49 94 -67 355 -32 460 43 131 131 293 241 445 40 56 74 107 76 115 1 8 -1 33
-6 54 -5 26 -4 46 4 57 6 11 11 30 11 44 0 21 -5 25 -30 25 -20 0 -34 -7 -42
-21 -19 -31 -165 -142 -233 -176 -33 -17 -104 -53 -158 -82 -53 -28 -108 -51
-120 -51 -13 0 -28 -5 -34 -11 -21 -21 -246 -40 -493 -41 -250 -2 -452 13
-544 38 -29 8 -100 14 -170 14 -67 1 -139 5 -161 10 -100 22 -228 61 -266 80
-38 20 -57 21 -250 21 -121 0 -228 -5 -254 -12 -33 -8 -57 -8 -89 0 -60 15
-109 14 -170 -3 -28 -8 -91 -22 -140 -31 -49 -9 -117 -26 -150 -37 -90 -31
-288 -123 -326 -152 -8 -7 -51 -30 -95 -53 -44 -23 -100 -53 -125 -67 -25 -14
-61 -33 -80 -42 -118 -55 -180 -91 -222 -127 -25 -23 -88 -69 -139 -102 -131
-84 -401 -340 -434 -410 -19 -38 -87 -105 -109 -105 -7 0 -20 -15 -27 -32 -7
-18 -59 -78 -115 -133 -71 -70 -109 -117 -129 -158 -34 -70 -121 -159 -193
-198 -85 -45 -152 -98 -152 -121 0 -30 -141 -203 -165 -203 -5 0 -12 23 -15
50 -5 45 -7 50 -30 50 -21 0 -28 -10 -55 -80 -17 -44 -45 -110 -62 -147 -17
-37 -35 -78 -39 -90 -3 -13 -20 -39 -35 -59 -16 -20 -29 -41 -29 -47 0 -5 -15
-29 -34 -52 -27 -34 -46 -47 -93 -61 -70 -22 -103 -23 -146 -5 -57 24 -77 55
-81 126 -4 61 8 110 26 110 4 0 8 14 8 31 0 23 -9 40 -34 63 -26 25 -34 43
-40 81 -3 28 -9 67 -12 88 -4 27 -1 51 12 79 18 39 19 40 25 17 5 -15 7 0 8
41 1 40 7 74 16 86 8 12 12 24 9 26 -10 11 20 58 40 64 12 4 40 24 64 46 47
43 97 68 135 68 20 0 29 10 46 51 21 47 21 96 1 84 -15 -9 -81 32 -110 67 -51
62 -103 188 -122 293 -9 50 -10 393 -1 408 4 7 -18 11 -52 7 -23 -2 -75 -48
-75 -66 0 -6 -7 -17 -16 -25 -9 -7 -23 -30 -31 -51 -20 -50 -82 -102 -141
-119 -30 -9 -98 -14 -187 -14 l-140 0 -73 43 c-77 44 -104 50 -122 30 -6 -7
-36 -58 -66 -113 -80 -146 -198 -266 -316 -319 -67 -31 -225 -44 -310 -27
-107 23 -319 187 -361 281 -25 55 -66 240 -67 296 0 26 -7 51 -19 65 -18 22
-26 24 -106 23 -63 -2 -91 -6 -104 -18 -36 -32 -82 -17 -183 60 -120 93 -161
156 -253 389 -54 137 -65 188 -85 368 -11 99 -25 133 -70 171 -41 34 -95 35
-141 2 -97 -70 -162 -99 -228 -103 -87 -6 -143 18 -219 95 -61 62 -110 150
-156 282 -38 106 -65 124 -104 67 -29 -44 -99 -78 -170 -84 -72 -6 -200 18
-273 52 -53 24 -123 87 -147 132 -18 33 -42 164 -42 226 0 54 -2 59 -30 75
-20 12 -35 33 -50 73 -11 31 -20 60 -20 65 0 35 -23 82 -45 92 -22 10 -25 9
-31 -13z m792 -973 c10 -9 30 -24 43 -32 13 -9 33 -34 46 -55 13 -24 30 -41
43 -43 17 -3 23 -13 28 -43 6 -34 15 -47 58 -78 28 -21 58 -40 66 -43 13 -5
13 -7 -2 -13 -13 -5 -15 -12 -7 -35 11 -31 61 -60 103 -60 29 0 76 -19 76 -32
0 -4 11 -8 25 -8 18 0 25 -5 25 -20 0 -24 19 -26 46 -5 10 8 35 15 55 15 34 0
37 -3 43 -35 4 -21 13 -35 21 -35 8 0 15 -6 15 -14 0 -8 14 -27 30 -43 17 -15
30 -38 30 -51 0 -14 13 -35 30 -50 17 -15 30 -34 30 -42 0 -9 6 -25 14 -35 8
-12 11 -28 6 -44 -4 -17 -2 -29 7 -36 9 -6 16 -39 19 -85 3 -40 8 -78 11 -83
3 -5 18 -7 34 -5 17 3 29 0 29 -6 0 -6 9 -28 20 -49 11 -20 20 -44 20 -52 0
-8 -9 -19 -20 -25 -33 -17 -27 -77 11 -116 17 -18 28 -37 25 -43 -8 -13 -46
-15 -46 -2 0 13 -33 19 -58 10 -19 -7 -22 -16 -22 -68 0 -44 4 -60 16 -65 25
-9 64 -7 64 4 0 6 9 10 19 10 11 0 23 -4 26 -10 3 -5 24 -10 45 -10 36 0 39
-2 42 -32 4 -41 24 -47 40 -11 7 15 17 31 22 35 14 9 36 -2 36 -19 0 -23 51
-63 81 -63 l28 0 3 -92 3 -93 43 -3 42 -3 0 63 c0 62 1 64 34 82 28 15 38 16
57 5 33 -17 39 -28 39 -76 l0 -43 65 0 c62 0 65 -1 65 -24 0 -35 10 -56 26
-56 7 0 29 -9 49 -20 20 -11 42 -20 49 -20 7 0 16 -12 19 -27 7 -31 67 -65
122 -68 43 -3 58 -13 52 -36 -5 -19 15 -44 26 -32 4 3 4 17 1 29 -5 20 -2 24
15 24 12 0 24 -8 27 -17 3 -10 11 -31 19 -48 7 -16 16 -47 20 -68 7 -43 20
-41 30 6 4 17 11 37 16 43 11 14 204 17 229 4 14 -8 25 -4 48 15 18 15 42 25
61 25 24 0 34 6 41 25 11 28 14 29 41 15 25 -14 24 -28 -3 -57 l-21 -23 38 0
c22 0 46 7 57 17 18 16 19 16 25 -6 4 -15 12 -21 27 -19 19 3 21 10 24 70 3
64 2 66 -25 75 l-27 9 22 20 c34 28 65 82 59 104 -4 16 0 18 29 13 34 -6 43 4
23 24 -16 16 -3 32 21 26 16 -4 21 3 31 41 8 33 16 46 29 46 10 0 20 5 22 12
6 18 78 21 78 3 0 -14 72 -31 89 -21 5 4 14 -2 20 -11 8 -15 21 -17 74 -15 39
2 67 -1 71 -7 4 -6 21 -11 37 -11 18 0 44 -11 65 -27 40 -33 43 -42 9 -35 -18
3 -25 0 -25 -11 0 -21 27 -42 33 -25 2 7 8 10 12 6 5 -5 1 -16 -7 -25 -9 -10
-24 -43 -32 -74 -9 -31 -25 -64 -36 -74 -19 -17 -20 -17 -29 9 -6 14 -15 26
-21 26 -13 0 -13 -33 0 -46 17 -17 -10 -104 -32 -104 -21 0 -37 -32 -52 -105
-10 -46 -13 -50 -39 -48 -26 2 -27 0 -27 -45 1 -90 -1 -102 -15 -102 -7 0 -27
-12 -44 -26 -24 -20 -29 -31 -25 -53 4 -20 1 -30 -10 -34 -14 -5 -15 -11 -6
-27 14 -25 4 -43 -19 -35 -20 6 -57 -29 -63 -60 -3 -17 -11 -20 -53 -20 -44 0
-50 3 -56 25 -4 14 -7 20 -8 14 -1 -6 -4 -26 -7 -43 -6 -27 -4 -31 14 -31 19
0 21 -4 15 -52 -7 -64 -11 -69 -30 -40 -18 25 -73 32 -73 8 0 -8 -6 -16 -14
-19 -18 -7 -36 -68 -36 -119 0 -36 -1 -37 -30 -31 l-30 6 0 -66 c0 -36 -4 -69
-10 -72 -5 -3 -10 -14 -10 -24 0 -10 -7 -24 -15 -31 -13 -11 -15 -5 -15 41 l0
54 -77 -3 c-43 -2 -80 -6 -83 -8 -2 -3 -6 -47 -8 -99 -3 -69 -1 -99 9 -111 16
-20 -2 -34 -45 -34 l-29 0 7 -71 c6 -57 5 -70 -6 -67 -7 3 -14 19 -16 36 -3
31 -5 32 -48 32 -36 0 -44 -3 -44 -19 0 -10 7 -24 15 -31 27 -22 18 -39 -17
-34 -27 4 -39 -1 -68 -27 -30 -28 -35 -39 -35 -78 0 -40 -2 -46 -20 -43 -32 5
-65 24 -65 39 0 7 11 19 25 25 28 12 33 28 10 28 -23 0 -22 135 1 144 14 5 15
15 10 58 -9 65 -19 78 -62 78 -23 0 -44 9 -66 29 -32 29 -33 30 -13 45 11 8
27 16 36 16 8 0 26 11 38 24 l22 24 -61 7 -61 7 3 137 c3 135 3 136 -19 139
-21 3 -23 9 -23 68 l0 64 -35 0 c-31 0 -35 -3 -35 -25 0 -14 -4 -25 -10 -25
-5 0 -10 -7 -10 -15 0 -25 -24 -17 -37 12 -9 18 -13 79 -13 180 l0 153 29 0
c38 0 44 10 42 75 -1 43 3 55 17 59 13 4 13 4 -3 3 -32 -2 -45 12 -45 49 0 32
-2 34 -35 34 -31 0 -35 -3 -42 -37 -7 -35 -8 -33 -13 32 l-5 70 -50 0 -50 0
-3 -137 c-2 -88 -6 -138 -13 -138 -7 0 -9 -25 -7 -70 l3 -70 -155 -2 -155 -3
-3 -67 c-3 -65 -4 -68 -27 -68 -24 0 -25 2 -25 70 0 68 -1 70 -25 70 -23 0
-24 3 -27 73 -3 68 -4 72 -28 75 -22 2 -25 -1 -27 -33 -3 -60 -38 -86 -58 -44
-16 35 -30 27 -33 -18 -2 -33 1 -44 18 -56 21 -14 20 -15 -15 -35 -19 -12 -35
-28 -35 -37 0 -8 -9 -15 -19 -15 -13 0 -24 13 -36 42 -15 39 -15 44 0 79 16
34 16 39 1 68 -15 28 -15 32 -1 37 21 8 1 34 -26 34 -15 0 -19 7 -19 35 0 27
4 35 18 35 11 0 27 9 37 20 10 11 24 20 32 20 7 0 13 11 13 24 0 14 4 27 9 31
5 3 15 29 21 58 11 53 11 53 60 66 28 7 50 17 50 22 0 5 7 9 15 9 23 0 18 19
-8 29 -13 5 -29 16 -36 25 -8 9 -28 16 -47 16 -30 0 -34 -3 -34 -25 0 -16 -6
-25 -15 -25 -8 0 -15 5 -15 11 0 16 -31 38 -52 39 -15 0 -18 10 -18 64 0 46
-4 65 -14 69 -22 9 -26 -2 -26 -70 l0 -63 -65 0 -64 0 -3 68 c-3 65 -4 67 -28
64 -13 -2 -30 -11 -37 -20 -15 -20 -17 -68 -3 -77 13 -8 13 -35 -1 -35 -15 0
-79 62 -79 77 0 7 11 15 25 19 30 7 33 29 6 44 -11 5 -23 19 -26 30 -5 17 -15
20 -70 20 -61 0 -65 2 -71 25 -3 14 -18 31 -33 38 -17 8 -25 19 -23 31 4 20
-54 86 -74 86 -19 0 -47 66 -41 93 4 12 2 29 -3 37 -8 12 -13 13 -30 3 -11 -7
-24 -13 -29 -13 -16 0 -22 49 -9 70 11 18 10 23 -7 35 -36 25 -66 59 -71 83
-4 12 -10 22 -15 22 -5 0 -9 8 -9 18 0 32 -51 177 -72 206 -11 16 -23 50 -26
75 -2 25 -12 55 -22 66 -24 28 -56 85 -65 115 -4 14 -19 49 -32 79 -14 29 -22
62 -19 74 3 12 -2 26 -15 36 -10 9 -23 37 -27 62 -5 25 -16 57 -25 70 -10 13
-17 39 -17 59 0 48 -19 113 -36 123 -9 5 -11 18 -8 36 4 16 1 32 -5 35 -15 10
-14 71 2 83 6 5 70 10 141 11 73 1 134 6 140 12 15 15 40 12 62 -8z m-626 -22
c0 -5 -4 -10 -9 -10 -6 0 -13 5 -16 10 -3 6 1 10 9 10 9 0 16 -4 16 -10z m21
-30 c10 -6 19 -21 19 -33 0 -12 8 -40 19 -62 25 -52 41 -100 53 -155 5 -25 19
-63 30 -84 12 -22 22 -49 24 -60 2 -12 10 -39 18 -61 8 -22 15 -57 16 -77 0
-23 6 -40 16 -46 9 -5 14 -15 12 -23 -3 -8 1 -31 8 -53 8 -21 14 -50 14 -63 0
-14 7 -37 15 -51 24 -44 48 -115 50 -152 1 -18 7 -36 14 -38 6 -2 11 -20 11
-40 0 -37 19 -85 20 -52 1 31 22 -22 25 -63 7 -85 17 -116 37 -123 13 -4 18
-12 15 -25 -3 -11 0 -33 6 -49 9 -23 9 -35 -1 -50 -6 -11 -12 -26 -12 -33 0
-15 28 -71 53 -107 9 -13 17 -38 17 -55 0 -40 44 -146 69 -167 22 -17 28 -67
11 -84 -6 -6 -6 -15 0 -24 8 -12 10 -11 10 5 0 17 2 17 10 5 5 -8 10 -38 10
-67 0 -43 3 -53 20 -58 14 -4 20 -15 20 -35 0 -16 6 -49 14 -72 8 -24 21 -81
30 -128 10 -49 23 -88 31 -93 8 -4 15 -16 15 -25 0 -9 7 -26 15 -36 19 -26 19
-141 0 -221 -20 -82 -19 -111 6 -136 16 -16 28 -20 51 -15 18 3 37 1 44 -5 11
-9 14 -8 14 0 0 7 5 9 10 6 6 -3 10 -23 10 -44 0 -24 9 -49 25 -71 14 -20 25
-47 25 -66 0 -18 6 -34 14 -37 8 -3 16 -16 18 -28 2 -15 12 -26 28 -30 16 -4
19 -7 8 -8 -14 -1 -18 -10 -18 -36 0 -19 5 -35 10 -35 6 0 10 5 10 10 0 6 7
10 15 10 13 0 15 -8 10 -37 -11 -62 -14 -70 -25 -53 -7 11 -10 5 -10 -21 0
-31 5 -38 28 -48 22 -9 31 -24 46 -73 10 -34 27 -76 37 -95 22 -39 24 -70 6
-92 -8 -11 -11 -45 -9 -109 l3 -94 40 7 c48 8 69 -6 69 -45 0 -34 -22 -54 -55
-48 -27 6 -33 -8 -11 -26 9 -7 16 -37 18 -83 3 -65 2 -73 -14 -73 -21 0 -33
-39 -24 -75 4 -16 13 -25 26 -25 11 0 20 -4 20 -10 0 -5 -8 -10 -19 -10 -17 0
-19 -12 -26 -140 l-7 -140 -63 0 c-71 0 -75 -4 -75 -92 0 -41 -3 -47 -22 -50
-21 -3 -23 -9 -26 -70 -2 -55 -6 -68 -22 -73 -26 -8 -70 5 -70 21 0 27 -18 14
-24 -17 -10 -51 -7 -86 9 -99 13 -11 15 -8 15 14 0 20 5 26 21 26 17 0 20 -5
17 -37 -3 -37 -4 -38 -45 -41 -34 -2 -43 0 -43 12 0 12 -10 16 -40 16 -41 0
-44 -3 -40 -52 3 -45 -10 -68 -46 -83 -19 -8 -34 -19 -34 -24 0 -6 -14 -11
-31 -11 -24 0 -32 -6 -40 -29 -7 -21 -25 -37 -56 -52 -25 -12 -56 -32 -70 -45
-21 -20 -33 -23 -64 -18 -21 4 -51 3 -66 -1 -27 -7 -28 -7 -5 -16 34 -13 27
-25 -25 -45 -33 -12 -76 -18 -136 -18 -86 -1 -89 -2 -112 -31 -21 -25 -25 -27
-31 -12 -12 33 -84 8 -84 -30 0 -7 -5 -22 -12 -33 -10 -15 -9 -22 6 -39 10
-11 15 -25 11 -31 -3 -6 0 -32 8 -58 9 -26 18 -64 21 -85 4 -33 2 -39 -20 -49
-19 -9 -30 -9 -44 0 -12 7 -21 8 -25 2 -8 -13 -45 -13 -45 -1 0 5 8 12 18 14
11 3 9 5 -8 6 -46 2 -51 12 -49 97 3 83 -3 104 -26 104 -27 0 -40 61 -40 188
0 112 2 125 20 137 39 28 43 35 56 104 l12 71 34 0 c36 0 68 25 84 67 7 20 6
38 -7 73 -18 51 -14 109 10 133 24 24 67 118 65 140 -2 12 3 39 10 60 7 21 10
49 7 62 -4 17 0 30 16 45 12 11 26 20 30 20 5 0 13 10 19 23 8 17 6 48 -6 118
-16 93 -16 94 5 108 17 11 20 24 20 76 0 47 -4 64 -15 69 -9 3 -15 19 -15 41
0 25 -8 44 -25 61 -18 18 -22 29 -16 42 33 65 39 130 14 139 -10 4 -23 14 -30
22 -15 20 -17 68 -2 76 6 5 8 26 4 60 -7 50 -5 56 20 79 21 19 25 29 17 39
-12 14 0 119 24 199 8 26 14 54 14 63 0 8 7 18 15 21 11 5 15 22 15 70 l0 64
-34 0 c-19 0 -41 3 -49 6 -11 4 -17 -3 -21 -23 -5 -22 -13 -29 -32 -31 -30 -2
-45 -16 -68 -60 -9 -18 -20 -32 -25 -32 -5 0 -12 -16 -15 -35 -6 -28 -11 -35
-31 -35 -20 0 -25 -7 -31 -35 -3 -19 -10 -35 -14 -35 -4 0 -10 -13 -13 -29 -4
-19 -16 -34 -34 -43 -15 -7 -32 -23 -38 -35 -5 -12 -18 -24 -30 -27 -24 -7
-120 -8 -126 -2 -2 2 -2 27 -1 54 3 39 8 51 23 55 15 4 19 14 19 45 0 23 4 52
10 66 14 38 -8 196 -32 222 -22 25 -23 40 -2 52 14 8 13 12 -10 35 -14 14 -26
34 -26 43 0 10 -7 25 -16 35 -8 9 -17 37 -18 61 -2 24 -11 69 -20 100 -14 48
-19 55 -36 51 -14 -4 -20 0 -20 11 0 9 6 16 13 16 6 0 -7 16 -30 36 -35 29
-43 42 -43 70 0 28 -4 34 -22 34 l-21 0 21 23 c22 24 52 117 52 162 0 14 4 25
8 25 5 0 14 19 21 42 11 36 11 43 -3 54 -9 6 -16 17 -16 24 0 7 3 10 6 7 4 -3
16 5 26 19 15 18 18 32 13 52 -4 15 -7 45 -6 67 10 242 1 320 -44 408 -21 40
-19 47 15 47 18 0 33 6 36 15 4 8 14 15 24 15 10 0 23 7 30 15 6 8 22 17 33
21 29 9 91 74 116 121 11 21 31 52 45 68 l24 30 10 -25 c6 -14 18 -32 27 -40
29 -24 40 8 54 157 7 76 17 159 23 186 5 26 7 59 4 73 -4 15 -7 64 -7 110 0
67 -4 87 -20 108 -17 21 -18 28 -7 45 10 17 9 30 -10 82 -22 62 -22 79 3 79 8
0 22 12 32 28 10 15 23 31 30 35 7 4 13 14 13 22 0 8 9 29 20 47 11 18 20 43
20 56 0 16 9 27 33 37 39 17 53 18 78 5z m-4953 -152 c36 -19 48 -31 53 -56 4
-17 12 -38 18 -46 9 -11 9 -35 0 -103 -14 -106 -14 -385 1 -412 5 -11 10 -39
10 -63 0 -27 8 -52 20 -68 11 -14 20 -35 20 -47 0 -12 6 -28 13 -35 6 -7 25
-33 41 -58 17 -25 49 -65 72 -90 23 -25 45 -55 48 -66 5 -15 18 -24 40 -28 18
-4 43 -17 55 -30 40 -43 199 -62 331 -39 65 11 84 21 129 68 19 19 38 35 42
35 11 0 103 62 107 73 11 23 38 38 63 35 23 -4 34 3 60 34 31 37 35 38 95 38
35 0 66 5 69 10 10 16 132 13 138 -3 3 -9 16 -12 34 -10 21 4 43 -4 76 -27 42
-28 46 -34 40 -60 -4 -23 -2 -30 11 -30 12 0 16 -9 16 -36 0 -19 5 -44 10 -55
9 -15 7 -21 -7 -26 -10 -4 -27 -15 -37 -25 -11 -10 -24 -18 -29 -18 -6 0 -7
-25 -3 -61 10 -85 15 -96 33 -63 10 20 11 29 2 35 -6 4 -8 12 -4 19 6 10 11 9
21 -4 7 -10 16 -16 21 -14 12 5 14 -45 6 -181 -6 -92 -12 -126 -22 -129 -8 -3
-11 0 -7 6 3 6 1 14 -5 18 -8 5 -10 -3 -5 -27 18 -88 18 -180 0 -251 -10 -40
-17 -92 -15 -116 2 -35 -2 -49 -20 -68 -19 -20 -23 -34 -21 -77 2 -62 32 -153
44 -134 6 9 10 9 18 -3 14 -22 12 -30 -7 -30 -16 -1 -16 -2 -3 -13 15 -11 60
-117 60 -138 0 -14 -49 24 -50 37 0 15 -28 26 -43 17 -7 -4 -18 -15 -25 -25
-17 -23 -58 -23 -72 0 -9 13 -10 4 -5 -42 3 -32 8 -63 11 -68 3 -5 21 -6 40
-2 30 6 36 3 41 -15 3 -11 10 -21 17 -21 27 -1 88 -98 113 -184 8 -25 20 -33
69 -51 38 -13 60 -27 62 -39 3 -15 -2 -17 -40 -15 -37 3 -43 1 -43 -16 0 -14
6 -20 23 -19 23 1 29 -11 34 -71 3 -29 4 -30 58 -30 l54 0 33 68 c32 65 34 67
70 67 61 0 70 14 29 38 -33 19 -35 24 -24 42 7 11 20 20 28 20 8 0 35 11 59
25 41 24 48 25 127 17 46 -4 88 -6 92 -2 19 14 92 139 92 158 0 12 4 22 9 22
16 0 61 76 61 104 0 19 12 38 40 63 29 26 40 44 40 64 0 27 2 28 33 22 28 -6
30 -4 20 9 -18 22 -6 28 53 28 44 0 54 -4 68 -25 9 -14 22 -25 29 -25 7 0 21
-18 31 -39 9 -22 25 -43 36 -46 17 -5 32 -26 35 -50 1 -5 7 -23 13 -38 7 -16
12 -36 12 -46 0 -9 4 -21 10 -27 12 -12 -9 -120 -31 -154 -21 -33 -59 -158
-59 -194 0 -15 -9 -39 -20 -53 -11 -14 -20 -36 -20 -49 0 -14 -10 -30 -24 -39
-22 -14 -23 -22 -26 -128 -5 -167 -2 -265 9 -332 8 -44 8 -61 -1 -66 -9 -6 -8
-13 5 -26 12 -14 15 -29 10 -56 -4 -28 -2 -38 11 -43 11 -4 16 -18 16 -45 0
-39 16 -78 58 -136 13 -19 22 -46 22 -68 0 -28 5 -38 19 -42 13 -3 22 -21 31
-61 6 -31 19 -81 27 -109 13 -43 13 -58 3 -82 -11 -28 -10 -33 19 -68 19 -23
31 -49 31 -68 1 -52 30 -75 93 -75 50 0 57 -3 81 -34 31 -42 32 -52 6 -66 -14
-8 -20 -21 -20 -46 0 -22 -6 -37 -15 -40 -18 -7 -20 -54 -2 -55 6 -1 19 -2 27
-3 18 -1 35 -47 27 -70 -8 -21 -37 -21 -37 0 0 11 -6 14 -22 8 -24 -7 -37 -19
-55 -51 -10 -18 -9 -22 8 -26 16 -4 19 -14 19 -70 l0 -65 35 -6 c20 -4 40 -4
45 -1 6 3 10 44 10 91 0 68 3 84 15 84 8 0 15 -6 15 -14 0 -8 9 -18 20 -21 17
-5 20 -15 20 -69 0 -34 4 -66 9 -71 9 -10 16 -216 13 -357 l-2 -68 -60 0 -60
0 0 -70 0 -70 53 -1 c30 0 45 -3 34 -7 -23 -10 -47 -57 -47 -93 0 -22 -6 -30
-25 -35 -14 -3 -25 -12 -25 -20 0 -19 -44 -18 -60 1 -7 8 -19 15 -26 15 -11 0
-14 17 -14 65 0 48 -4 67 -15 71 -8 3 -17 26 -21 50 -4 32 -11 44 -23 44 -26
0 -71 24 -71 38 0 6 -7 12 -15 12 -12 0 -15 15 -15 76 l0 75 28 -3 c26 -3 27
-5 30 -76 4 -99 26 -94 30 6 2 40 7 72 12 72 6 0 10 7 10 15 0 12 -13 15 -60
15 -47 0 -60 -3 -60 -15 0 -9 -6 -18 -14 -21 -14 -6 -52 -131 -42 -141 3 -3 0
-13 -6 -21 -7 -8 -17 -23 -23 -35 -5 -11 -15 -22 -21 -24 -16 -5 -74 45 -74
64 0 13 -10 15 -55 11 -41 -3 -56 -1 -60 10 -3 7 -2 18 1 23 3 6 3 21 0 35 -6
21 -9 22 -26 12 -15 -10 -22 -9 -39 6 -11 10 -21 28 -23 40 -3 24 -43 35 -61
17 -6 -6 -20 -11 -30 -11 -15 0 -17 3 -9 13 17 20 -14 71 -53 90 -19 9 -35 23
-35 32 0 10 -10 15 -30 15 -24 0 -31 5 -36 28 -9 35 -55 109 -73 117 -8 3 -19
1 -25 -5 -14 -14 -29 -12 -23 4 6 16 -75 117 -102 128 -14 5 -18 13 -14 28 4
16 -3 29 -31 51 -20 17 -36 39 -36 49 0 10 -22 41 -50 68 -27 27 -50 57 -50
65 0 8 -16 38 -35 67 -19 29 -35 63 -35 76 0 31 -27 32 -33 2 -4 -20 -4 -19
-6 5 0 15 -7 27 -13 27 -7 0 -24 26 -37 56 -14 31 -32 64 -41 73 -10 9 -20 31
-23 49 -4 18 -19 43 -34 57 -25 21 -30 22 -44 9 -14 -13 -18 -13 -28 0 -7 8
-10 24 -6 36 5 14 2 20 -10 20 -21 0 -35 40 -35 102 0 50 0 51 -20 33 -33 -30
-49 -13 -52 57 -3 61 -4 63 -33 68 -26 4 -30 10 -33 40 -4 62 -11 77 -39 89
-34 14 -73 79 -73 120 0 28 -3 31 -30 31 -24 0 -33 7 -48 37 -11 21 -33 43
-53 52 -24 11 -35 24 -37 42 -2 15 -23 48 -48 74 -24 26 -44 54 -44 61 0 8
-11 14 -25 14 -22 0 -25 4 -23 30 2 33 -34 80 -62 80 -19 0 -31 22 -54 103
-15 51 -19 56 -36 47 -16 -8 -20 -5 -30 24 -6 19 -18 40 -26 46 -8 7 -17 30
-20 51 -4 25 -13 40 -25 44 -11 4 -22 17 -25 31 -3 13 -12 24 -19 24 -15 0
-25 22 -25 57 0 16 -7 27 -20 30 -11 3 -20 10 -20 17 0 6 -10 35 -22 63 -15
35 -29 53 -40 53 -10 0 -18 -5 -18 -11 0 -5 -4 -7 -10 -4 -5 3 -10 22 -10 40
0 26 -6 39 -24 50 -14 9 -29 30 -35 46 -5 16 -15 29 -20 29 -6 0 -11 6 -11 14
0 7 -7 19 -15 26 -8 7 -15 28 -15 46 0 28 -4 34 -21 34 -16 0 -19 4 -15 17 4
9 -3 31 -17 52 -13 20 -27 48 -31 64 -4 17 -13 27 -24 27 -13 0 -23 15 -36 55
-9 30 -29 67 -43 83 -28 29 -53 81 -53 109 0 10 -14 33 -30 52 -17 19 -33 46
-36 60 -6 33 -33 89 -56 120 -10 13 -18 34 -18 47 0 12 -4 25 -9 28 -5 3 -12
22 -15 41 -4 19 -11 35 -16 35 -5 0 -14 16 -21 35 -7 19 -17 35 -21 35 -4 0
-8 8 -8 18 0 10 -6 26 -14 37 -7 11 -19 37 -25 58 -7 20 -16 37 -20 37 -8 0
-31 60 -31 82 0 9 -7 21 -15 28 -8 7 -13 16 -10 20 3 4 -2 13 -10 20 -9 7 -15
29 -15 51 0 20 -7 44 -15 52 -8 8 -22 33 -31 56 -9 23 -19 41 -24 41 -4 0 -13
19 -20 43 -7 23 -21 54 -31 69 -11 14 -19 32 -19 40 0 8 -7 23 -15 34 -8 10
-15 31 -15 45 0 14 -7 34 -15 45 -8 10 -15 28 -15 39 0 11 -9 35 -20 53 -11
18 -20 41 -20 52 0 11 -3 20 -7 20 -5 0 -16 14 -25 30 -16 29 -16 32 1 63 17
31 20 32 101 38 56 4 86 11 89 20 2 7 13 22 25 33 12 12 30 34 41 51 10 16 22
34 26 40 5 5 35 44 68 86 83 105 144 121 249 67z m-978 -98 c8 -11 22 -20 30
-20 20 0 70 -23 70 -32 0 -4 -7 -11 -16 -16 -15 -8 -14 -14 12 -46 16 -20 32
-36 37 -36 4 0 7 -10 7 -22 0 -13 12 -43 25 -67 14 -24 23 -46 21 -48 -3 -3 3
-14 13 -24 22 -24 34 -50 54 -114 9 -27 23 -69 32 -93 8 -24 13 -47 10 -52 -3
-5 4 -14 16 -20 14 -8 19 -18 16 -32 -5 -17 10 -61 44 -129 4 -9 11 -33 15
-53 3 -21 15 -43 25 -49 11 -7 19 -21 19 -33 0 -28 20 -85 36 -105 8 -8 14
-25 14 -36 0 -11 8 -31 18 -44 30 -42 42 -68 42 -92 0 -14 11 -41 25 -61 14
-20 25 -45 25 -54 0 -9 7 -26 15 -36 8 -11 15 -28 15 -37 0 -10 15 -47 34 -83
19 -36 40 -83 46 -103 7 -21 17 -44 23 -51 6 -8 10 -27 9 -42 -1 -16 4 -34 11
-42 30 -32 77 -114 93 -164 9 -30 21 -57 25 -60 5 -3 9 -16 9 -30 0 -13 9 -33
20 -44 12 -12 20 -33 20 -55 0 -21 6 -37 17 -43 9 -6 18 -24 19 -42 1 -18 13
-44 27 -58 25 -27 62 -120 62 -157 0 -11 10 -24 23 -30 14 -6 22 -18 22 -34 0
-14 11 -36 24 -50 26 -29 49 -88 40 -103 -3 -5 2 -8 12 -6 15 2 21 -7 30 -41
6 -25 16 -47 22 -49 6 -2 14 -19 18 -38 4 -21 16 -41 30 -51 13 -8 24 -25 24
-37 0 -12 9 -31 19 -43 11 -11 24 -38 30 -59 6 -21 20 -46 32 -55 12 -9 22
-27 23 -40 0 -13 10 -28 21 -34 11 -5 19 -17 17 -26 -1 -9 4 -22 13 -29 8 -7
15 -19 15 -27 0 -8 10 -23 22 -33 16 -13 22 -28 21 -54 -1 -24 4 -39 13 -43 8
-3 14 -15 14 -27 0 -11 16 -35 35 -53 19 -17 37 -44 41 -58 4 -15 12 -29 19
-31 7 -3 23 -33 35 -67 26 -69 49 -106 68 -107 7 0 12 -14 12 -36 0 -27 5 -37
20 -41 13 -4 20 -14 20 -30 0 -14 15 -43 35 -66 22 -25 35 -51 35 -68 0 -15 3
-35 7 -44 5 -15 8 -14 19 6 12 22 13 20 14 -30 0 -44 2 -52 14 -42 11 9 19 2
41 -36 16 -26 43 -65 62 -86 18 -20 33 -44 33 -52 0 -8 5 -15 10 -15 6 0 10
-9 10 -20 0 -27 42 -110 55 -110 23 0 57 -48 53 -74 -2 -20 3 -30 22 -39 14
-7 26 -21 28 -32 5 -26 30 -45 59 -45 19 0 23 -5 23 -29 0 -17 4 -32 9 -35 5
-3 12 -18 16 -33 8 -33 62 -103 79 -103 22 0 37 -22 25 -37 -9 -10 -5 -13 19
-13 35 0 49 -14 54 -55 2 -21 11 -34 31 -43 18 -9 27 -21 27 -36 0 -31 35 -63
53 -47 17 14 27 5 27 -25 0 -12 11 -31 25 -42 14 -11 25 -24 25 -30 0 -5 11
-17 24 -25 15 -10 25 -29 30 -56 4 -27 12 -42 25 -46 11 -3 23 -14 26 -25 3
-10 17 -25 30 -34 20 -13 23 -21 18 -52 -6 -36 -6 -36 25 -29 28 6 32 3 45
-27 15 -35 55 -68 82 -68 16 0 29 -24 39 -72 3 -15 22 -44 42 -65 20 -21 38
-52 41 -70 4 -22 11 -33 22 -33 28 0 61 -30 61 -55 0 -18 7 -26 25 -31 32 -8
33 -39 3 -71 -26 -28 -59 -30 -83 -3 -10 11 -30 20 -45 20 -15 0 -44 11 -64
25 -20 14 -41 25 -46 25 -6 0 -10 11 -10 25 0 15 -12 35 -30 52 -16 14 -30 35
-30 45 0 25 -42 24 -65 -2 -10 -11 -22 -20 -27 -20 -17 0 -20 31 -5 43 11 8
14 21 10 40 -5 26 -8 27 -64 27 -55 0 -58 -1 -62 -27 -2 -16 -2 0 1 33 l4 61
-56 5 c-31 3 -58 7 -61 10 -6 6 24 98 38 116 9 11 3 13 -29 10 -34 -3 -39 -6
-42 -30 -2 -16 -8 -28 -13 -28 -15 0 -24 33 -11 38 26 8 10 22 -25 22 -20 0
-44 6 -52 13 -17 15 -138 57 -162 57 -18 0 -43 87 -34 112 8 21 -31 98 -50 98
-8 0 -15 -6 -15 -14 0 -8 -4 -17 -9 -20 -5 -4 -7 2 -4 13 3 13 -2 20 -20 25
-20 5 -27 14 -32 45 -4 22 -12 45 -20 51 -7 6 -16 26 -19 45 -4 19 -15 39 -26
45 -26 14 -60 13 -61 -2 0 -7 -4 -4 -8 6 -7 19 -93 56 -137 59 -11 1 -27 7
-35 13 -8 6 -24 15 -37 18 -12 4 -26 16 -32 26 -10 19 -63 50 -86 50 -7 0 -25
16 -40 35 -14 19 -35 35 -45 35 -11 0 -19 5 -19 10 0 14 -40 28 -62 22 -10 -2
-18 -10 -18 -17 0 -31 -102 -23 -115 8 -13 28 -89 68 -123 65 -20 -2 -27 2
-32 21 -7 30 -56 46 -94 31 -20 -7 -26 -16 -26 -40 0 -25 -7 -33 -42 -51 -24
-12 -48 -29 -54 -37 -14 -20 -51 0 -64 34 -5 13 -16 24 -24 24 -7 0 -19 7 -27
16 -11 14 -14 13 -26 -11 -22 -40 -62 -31 -89 20 -13 26 -28 41 -43 43 -39 6
-50 -4 -42 -35 6 -20 3 -39 -11 -65 -16 -33 -23 -38 -53 -38 -29 0 -37 -5 -45
-25 -8 -22 -44 -45 -70 -45 -5 0 -10 15 -12 33 -3 29 -6 32 -42 35 -22 2 -51
12 -64 23 -14 10 -38 19 -53 19 -26 0 -29 4 -29 30 0 27 3 30 33 30 18 0 41 6
51 13 17 12 17 14 2 20 -11 4 -16 18 -16 42 0 31 4 38 29 46 16 6 32 17 35 25
3 8 12 14 21 14 8 0 15 7 15 15 0 23 46 36 99 29 25 -3 58 -1 72 5 32 12 59
61 59 107 0 31 1 33 33 27 28 -4 35 -1 44 20 7 14 15 42 19 64 3 21 12 47 19
58 13 22 20 53 38 170 7 44 15 85 19 91 11 17 -7 106 -24 118 -8 6 -13 18 -11
26 1 8 -13 40 -32 70 -19 30 -42 70 -51 89 -8 18 -24 35 -34 38 -11 3 -22 13
-25 23 -3 9 -17 22 -30 28 -14 6 -25 18 -25 25 0 32 -36 47 -121 50 l-84 4
-53 51 -52 52 -83 0 c-48 1 -99 7 -122 16 -22 8 -53 19 -68 24 -37 12 -84 53
-79 68 6 18 -19 14 -33 -5 -12 -16 -15 -16 -32 -2 -10 9 -28 20 -40 23 -12 4
-25 16 -28 27 -10 32 -47 49 -99 47 -26 -1 -51 4 -55 10 -3 6 -19 16 -34 21
-16 6 -26 15 -23 19 2 4 -12 9 -32 10 -20 2 -41 7 -46 12 -5 5 -16 5 -26 0
-25 -14 -36 0 -57 70 -17 57 -22 65 -46 68 -15 2 -27 7 -27 12 0 5 -22 33 -50
62 -32 33 -46 56 -40 62 4 6 12 38 15 71 7 55 10 63 50 94 24 19 49 45 56 58
9 16 16 20 25 13 8 -8 21 -3 43 15 19 17 41 26 58 24 31 -2 64 9 75 25 5 8 11
7 20 -2 17 -17 55 -15 62 3 3 8 15 15 26 15 11 0 23 -7 26 -15 8 -19 43 -19
64 0 9 8 47 17 91 21 89 7 125 19 132 45 4 14 14 19 39 19 25 0 36 6 43 22 6
12 24 29 40 38 22 13 30 24 30 45 0 20 7 30 23 36 22 9 23 10 19 151 l-4 143
-41 45 c-23 25 -42 48 -42 51 0 4 -20 22 -45 40 -24 19 -47 42 -50 51 -3 9
-15 20 -26 23 -10 4 -19 13 -19 21 0 8 -13 17 -30 21 -17 3 -39 16 -49 29 -10
13 -26 24 -34 24 -9 0 -18 4 -21 9 -3 4 -19 11 -36 14 -22 5 -30 12 -30 27 0
15 -11 26 -36 36 -28 12 -34 19 -29 34 4 14 2 20 -9 20 -9 0 -16 -8 -16 -17
-1 -17 -1 -17 -11 0 -5 9 -17 17 -25 17 -9 0 -34 17 -56 38 -33 31 -38 42 -34
65 6 28 5 29 -32 23 -36 -7 -37 -6 -54 36 -22 53 -23 104 -3 124 8 9 15 24 15
34 0 10 8 21 18 24 10 3 37 23 60 45 24 21 55 44 70 51 15 7 35 16 44 21 10 5
31 9 47 9 24 0 36 10 65 49 20 27 36 57 36 68 0 10 7 28 15 40 19 27 35 142
30 211 -6 77 -45 211 -60 206 -12 -5 -25 56 -25 121 0 32 20 61 33 49 4 -4 11
5 16 20 6 14 18 26 28 26 10 0 27 7 37 15 26 20 39 19 56 -5z m5640 -101 c0
-32 -16 -35 -34 -7 -7 12 -6 21 3 32 18 22 31 11 31 -25z m23 -80 c17 -23 14
-44 -11 -76 l-17 -23 -2 23 c-1 12 -5 39 -9 60 -5 30 -3 37 9 37 9 0 22 -9 30
-21z m8221 -85 c32 -16 56 -49 56 -78 0 -8 -11 -34 -25 -57 -14 -24 -25 -50
-25 -58 0 -18 -76 -178 -89 -185 -10 -6 -26 -56 -66 -206 -14 -52 -32 -119
-40 -148 -8 -29 -15 -65 -15 -80 0 -16 -5 -33 -12 -40 -8 -8 -12 -118 -15
-383 -4 -315 -2 -374 10 -388 18 -19 42 -148 40 -213 -2 -46 11 -64 23 -33 11
28 21 15 27 -30 2 -25 12 -54 21 -64 9 -10 13 -21 9 -24 -3 -4 2 -16 11 -26
12 -14 16 -27 10 -43 -7 -23 -54 -72 -77 -81 -7 -3 -5 -6 6 -6 26 -1 21 -31
-5 -31 -13 0 -36 -8 -51 -19 -23 -15 -25 -20 -13 -24 21 -8 21 -29 0 -25 -9 2
-21 -6 -28 -17 -26 -45 -35 -47 -44 -13 -7 28 -13 33 -42 36 -19 2 -36 -2 -41
-10 -13 -19 1 -132 17 -141 25 -14 15 -27 -18 -25 -36 3 -31 14 -65 -141 -10
-42 -57 -81 -75 -63 -7 7 -19 12 -28 12 -8 0 -27 14 -42 30 -15 17 -36 30 -50
30 -21 0 -25 7 -41 85 -10 47 -27 101 -38 121 -11 20 -21 56 -23 81 -2 31 -11
52 -30 72 -27 28 -34 57 -15 63 6 2 3 37 -11 102 -19 87 -21 113 -13 200 11
120 8 144 -19 148 -31 5 -55 72 -38 104 11 19 11 34 0 80 -8 31 -20 58 -27 61
-9 4 -13 25 -13 67 0 34 -4 66 -9 72 -6 5 -6 31 0 69 6 33 12 92 16 130 3 39
9 74 14 80 12 13 11 145 -1 145 -16 0 -12 169 6 230 8 30 20 82 25 115 26 171
50 259 75 273 9 5 19 24 23 43 6 31 10 34 51 39 52 7 91 25 87 42 -1 6 13 14
30 18 18 4 43 14 55 22 13 8 48 21 78 28 30 7 69 19 87 26 20 9 78 15 160 17
86 1 132 6 141 15 17 16 24 15 66 -4z m481 -91 c44 -9 121 -17 170 -17 50 -1
95 -4 100 -7 6 -4 23 -9 38 -13 20 -5 27 -11 23 -24 -3 -9 -8 -53 -12 -97 -3
-44 -13 -98 -22 -120 -11 -30 -15 -90 -17 -246 -1 -113 -6 -215 -10 -228 -5
-16 -3 -22 7 -20 35 4 38 -1 38 -70 0 -83 -7 -105 -50 -151 -17 -18 -38 -46
-46 -62 -8 -15 -28 -38 -44 -50 -17 -12 -30 -27 -30 -34 0 -6 -33 -46 -72 -89
-40 -43 -84 -91 -98 -107 -52 -61 -149 -155 -164 -161 -9 -4 -16 -15 -16 -26
0 -37 -12 -51 -41 -51 -22 0 -29 -5 -29 -20 0 -11 -7 -20 -15 -20 -8 0 -15 -4
-15 -10 0 -5 -9 -10 -20 -10 -14 0 -22 11 -30 40 -6 22 -17 40 -24 40 -16 0
-35 60 -29 92 3 14 -2 42 -11 62 -9 21 -14 42 -11 46 3 5 -1 12 -9 17 -22 12
-37 348 -23 518 15 193 20 221 38 253 10 18 19 47 19 63 0 17 5 62 12 101 9
54 16 72 30 76 14 3 18 14 18 47 0 26 6 50 15 59 10 10 13 24 9 41 -5 19 -1
32 14 48 11 12 23 38 27 57 3 19 11 48 17 64 10 26 13 27 19 10 7 -18 7 -18
14 1 16 42 22 44 88 28 34 -8 98 -21 142 -30z m-1145 -44 c0 -11 -4 -18 -10
-14 -5 3 -7 12 -3 20 7 21 13 19 13 -6z m2310 -33 c0 -3 -4 -8 -10 -11 -5 -3
-10 -1 -10 4 0 6 5 11 10 11 6 0 10 -2 10 -4z m-90 -21 c39 -20 38 -38 -5 -80
-25 -25 -43 -35 -66 -35 -25 0 -29 -3 -21 -13 8 -10 3 -23 -23 -52 -19 -21
-35 -43 -35 -49 0 -12 -64 -66 -77 -66 -4 0 -21 -16 -36 -35 -32 -40 -82 -69
-104 -61 -9 4 -17 -1 -20 -13 -3 -11 -11 -22 -19 -25 -8 -3 -14 -12 -14 -19 0
-26 -28 -41 -53 -29 -12 5 -30 13 -39 16 -24 7 -23 33 2 41 32 10 23 27 -12
23 -27 -3 -32 1 -40 27 -11 40 -14 164 -4 193 4 12 14 22 22 22 17 0 19 37 3
42 -8 3 -7 13 5 35 11 21 32 39 68 55 48 21 64 23 163 20 61 -2 117 -4 125 -4
28 0 113 12 118 17 9 9 33 5 62 -10z m439 -14 c10 -6 12 -19 7 -42 -16 -80
-17 -97 -7 -103 16 -10 13 -43 -4 -50 -20 -7 -21 -191 -2 -239 7 -18 14 -59
15 -92 2 -46 7 -64 22 -77 11 -9 20 -25 20 -35 0 -10 8 -29 17 -43 9 -13 19
-40 22 -59 5 -30 11 -37 33 -39 18 -2 28 -11 32 -28 4 -13 13 -24 21 -24 8 0
15 -5 15 -12 0 -6 7 -19 16 -29 9 -10 17 -41 19 -71 2 -29 4 -56 4 -60 1 -5 7
-7 14 -5 7 1 13 -12 15 -35 3 -30 7 -38 23 -38 10 0 19 -7 19 -15 0 -8 6 -12
13 -9 21 7 44 -70 28 -90 -11 -13 -10 -18 2 -31 9 -8 25 -15 36 -15 12 0 21
-6 21 -16 0 -8 11 -30 25 -48 20 -26 24 -40 19 -65 -6 -26 -4 -30 10 -25 17 6
21 -8 17 -54 -1 -12 5 -25 14 -28 21 -9 19 -24 -4 -24 -30 0 -33 -14 -9 -40
20 -21 22 -22 34 -5 15 20 10 26 49 -75 9 -25 21 -53 26 -62 5 -10 6 -24 3
-33 -7 -17 14 -48 27 -39 5 3 9 -5 9 -18 0 -13 10 -51 22 -86 19 -54 20 -65 8
-72 -8 -6 -10 -10 -4 -10 24 0 38 -57 39 -155 1 -55 5 -125 9 -155 8 -54 7
-56 -20 -69 l-27 -12 36 -26 c26 -18 37 -34 37 -52 1 -24 2 -25 14 -8 13 17
15 15 26 -19 15 -45 8 -143 -11 -158 -11 -8 -15 -44 -16 -155 -1 -117 -4 -147
-16 -156 -10 -7 -21 -44 -29 -93 -10 -66 -16 -82 -30 -82 -20 0 -38 -29 -38
-59 0 -14 6 -21 20 -21 21 0 27 -15 10 -25 -5 -3 -10 -16 -10 -29 0 -12 -11
-32 -25 -44 -14 -12 -25 -33 -25 -46 0 -14 -4 -28 -10 -31 -5 -3 -10 -13 -10
-22 0 -27 -41 -75 -61 -70 -18 5 -69 -42 -69 -65 0 -9 3 -9 12 0 25 25 35 13
28 -36 -4 -30 -14 -56 -28 -70 -18 -18 -20 -27 -12 -42 16 -29 12 -39 -15 -46
-35 -9 -73 -61 -81 -113 -5 -30 -13 -45 -25 -48 -10 -3 -19 -15 -21 -27 -2
-15 -11 -22 -30 -24 -27 -3 -28 -5 -28 -67 0 -58 -2 -64 -22 -67 -19 -2 -23
-9 -23 -38 0 -28 -4 -35 -20 -35 -15 0 -21 -8 -23 -30 -3 -24 -12 -34 -48 -52
-24 -13 -51 -23 -59 -23 -8 0 -15 -5 -15 -12 0 -6 -3 -8 -6 -5 -4 4 -1 14 6
23 12 13 11 17 -1 25 -22 13 -49 11 -55 -6 -8 -20 -63 -20 -91 0 -16 12 -23
12 -29 3 -4 -6 -2 -14 4 -16 7 -2 17 -13 23 -23 10 -19 7 -20 -35 -18 -32 2
-51 -3 -65 -15 -11 -10 -43 -20 -75 -23 -31 -3 -61 -12 -67 -19 -9 -11 -8 -14
5 -14 9 0 16 -4 16 -10 0 -13 -23 -13 -36 0 -12 12 -84 1 -84 -14 0 -13 -46
-36 -72 -36 -15 0 -18 -8 -18 -45 0 -43 -1 -45 -40 -56 -34 -10 -43 -10 -58 4
-10 10 -24 17 -30 17 -8 0 -12 22 -12 65 0 51 -3 65 -15 65 -12 0 -15 -14 -15
-65 0 -64 0 -65 -27 -65 -40 0 -50 -10 -58 -54 -8 -41 -24 -32 -25 14 -1 19
-7 11 -28 -33 -30 -64 -51 -70 -66 -19 -5 17 -13 32 -17 32 -5 0 -9 8 -9 18 0
12 -4 10 -13 -8 -10 -21 -21 -26 -60 -28 l-47 -3 0 35 c0 19 -4 38 -10 41 -6
4 -10 62 -10 142 0 120 -2 134 -16 129 -19 -7 -94 11 -94 23 0 15 39 43 49 36
6 -3 11 -15 11 -26 0 -12 7 -19 19 -19 14 0 18 5 14 19 -3 13 10 27 51 55 31
20 56 40 56 45 0 4 19 11 42 17 31 6 44 15 47 29 4 25 19 35 52 35 28 0 42
-20 33 -44 -3 -8 -1 -17 5 -21 7 -4 11 7 11 29 0 28 6 39 28 53 15 9 37 27 50
40 18 18 34 23 75 23 47 0 58 4 91 35 35 32 44 35 96 35 51 0 58 3 63 22 4 12
4 33 1 45 -8 29 11 52 35 46 14 -3 23 3 33 23 15 33 65 56 77 36 5 -8 15 3 30
33 12 25 29 45 37 45 8 0 14 -4 14 -8 0 -5 16 -8 35 -8 25 1 35 5 35 17 0 9
-8 20 -17 23 -14 6 -12 10 12 26 17 11 38 20 47 20 26 0 87 33 88 48 0 6 9 12
19 12 11 0 23 5 26 10 3 6 24 10 46 10 30 0 46 6 64 26 14 15 25 31 25 36 0
16 44 70 65 79 11 5 34 18 50 29 17 11 40 24 53 30 13 5 22 17 20 26 -2 8 21
36 51 63 30 26 55 56 56 67 1 10 6 27 10 37 12 29 -2 45 -46 49 -29 3 -48 -1
-63 -13 -12 -9 -41 -27 -64 -39 -23 -12 -42 -27 -42 -32 0 -6 -7 -7 -17 -4
-10 4 -23 -1 -35 -14 -10 -11 -27 -20 -38 -20 -10 0 -23 -6 -27 -13 -4 -7 -24
-23 -43 -34 -26 -16 -40 -19 -53 -11 -28 15 -45 3 -57 -41 -9 -35 -14 -40 -43
-43 -24 -2 -33 -8 -35 -24 -2 -16 -20 -29 -65 -48 -34 -15 -69 -31 -77 -37 -8
-5 -27 -15 -42 -22 -16 -6 -28 -17 -28 -24 0 -14 -79 -28 -109 -18 -18 5 -21
2 -21 -23 0 -24 -5 -31 -25 -36 -14 -4 -30 -4 -36 0 -5 3 -26 -12 -45 -33 -31
-34 -36 -36 -45 -20 -13 23 -29 22 -29 -2 0 -22 -19 -31 -66 -31 -29 0 -34 -3
-34 -24 0 -36 -18 -41 -41 -12 -23 29 -47 34 -56 10 -3 -8 -16 -20 -29 -25
-15 -5 -24 -17 -24 -29 0 -17 -4 -20 -20 -15 -21 7 -100 -11 -100 -23 0 -5 5
-13 12 -20 9 -9 7 -12 -9 -12 -12 0 -23 5 -25 11 -5 14 -88 -26 -88 -41 0 -6
-11 -10 -24 -10 -13 0 -27 -7 -30 -16 -5 -14 -7 -14 -22 0 -20 21 -23 20 -50
-5 -20 -19 -34 -21 -109 -20 -68 1 -87 -2 -91 -14 -4 -8 -18 -15 -33 -15 -14
0 -45 -7 -68 -15 -26 -9 -107 -17 -227 -21 -146 -6 -186 -10 -186 -21 0 -7
-11 -13 -25 -13 -28 0 -33 21 -10 40 19 16 21 104 3 98 -8 -3 -14 -26 -16 -56
l-3 -52 -66 0 c-51 0 -69 -4 -79 -17 -13 -17 -13 -17 -14 0 0 9 5 17 10 17 22
0 8 28 -19 40 -36 15 -49 8 -67 -36 -15 -36 -47 -46 -58 -19 -3 8 -11 15 -18
15 -6 0 -22 9 -34 21 -20 19 -21 23 -8 47 12 23 12 28 -1 38 -8 6 -15 16 -15
21 0 6 -9 13 -20 16 -34 9 -37 38 -7 61 15 12 27 27 27 33 0 6 3 13 8 16 4 2
1 2 -6 0 -8 -1 -54 -3 -103 -3 -88 0 -89 0 -89 -25 0 -14 -4 -25 -10 -25 -5 0
-10 9 -10 19 0 11 -4 23 -10 26 -5 3 -10 35 -10 70 l0 63 40 7 c22 4 63 4 90
0 42 -6 50 -10 50 -28 0 -11 3 -17 7 -14 3 4 0 31 -7 61 -10 43 -18 56 -34 58
-15 2 -22 11 -24 31 -2 16 -10 31 -18 34 -19 7 -18 28 5 88 12 31 26 51 37 54
24 4 34 19 34 50 0 18 4 22 18 15 9 -4 35 -9 57 -11 22 -2 64 -16 93 -30 42
-21 57 -24 76 -15 18 8 25 6 33 -6 9 -15 13 -15 37 -2 22 11 31 12 46 2 11 -7
27 -12 35 -12 8 0 15 -6 15 -13 0 -7 6 -21 13 -31 13 -17 16 -17 66 9 48 24
54 25 70 11 12 -11 37 -16 74 -16 31 0 59 -5 63 -11 4 -7 20 -8 43 -4 20 4 65
8 101 10 81 4 183 20 209 34 11 6 48 14 83 17 35 4 73 13 85 20 28 17 44 18
41 2 -3 -15 -3 -15 75 -4 34 5 61 14 64 22 4 10 24 14 70 14 46 0 72 5 91 18
44 30 90 45 121 39 20 -4 44 1 78 18 26 14 59 25 73 25 15 0 31 5 37 11 6 6
40 19 75 29 34 10 88 27 118 38 30 11 71 23 91 26 20 4 48 18 62 32 15 14 31
23 36 20 16 -10 51 17 51 39 1 19 1 19 13 -2 l13 -23 17 29 c9 16 17 38 17 48
0 15 12 23 51 33 28 8 57 22 63 32 6 10 19 18 28 18 10 0 22 9 28 19 5 11 23
22 39 26 16 3 48 24 71 45 24 22 51 42 61 45 11 4 19 14 19 24 0 22 16 36 52
45 15 3 33 13 40 21 36 43 41 46 51 36 6 -6 15 -11 19 -11 14 0 8 33 -8 45
-13 9 -14 16 -5 33 9 17 8 27 -5 47 -21 32 -57 32 -82 0 -11 -14 -24 -25 -28
-25 -5 0 -38 -16 -74 -35 -36 -19 -81 -42 -100 -51 -19 -9 -50 -27 -69 -41
-20 -16 -36 -22 -40 -15 -3 5 -24 12 -46 13 -37 3 -40 2 -37 -19 2 -12 -3 -24
-10 -26 -7 -1 -28 -8 -46 -14 -21 -7 -42 -8 -57 -2 -17 7 -25 5 -29 -6 -3 -8
-13 -14 -23 -14 -20 0 -63 -38 -63 -57 0 -10 -5 -11 -18 -4 -20 11 -62 4 -62
-10 0 -5 6 -9 13 -10 6 0 -17 -8 -52 -16 -70 -17 -66 -14 -133 -73 -40 -36
-49 -40 -66 -29 -17 11 -24 8 -53 -19 -24 -22 -44 -32 -66 -32 -26 0 -33 -4
-33 -20 0 -18 -7 -20 -66 -20 -54 0 -69 -4 -82 -21 -14 -16 -31 -21 -96 -24
-55 -2 -83 -8 -90 -17 -13 -17 -116 -34 -116 -19 0 15 -37 23 -70 16 -20 -4
-27 -11 -23 -21 4 -12 -12 -14 -96 -14 -110 0 -144 19 -38 21 34 1 -3 6 -83
10 -176 10 -344 36 -375 59 -5 4 -35 11 -65 15 -39 5 -62 15 -77 31 -12 13
-31 24 -42 24 -11 0 -22 4 -25 9 -3 4 -19 11 -36 14 -20 4 -34 15 -40 31 -5
13 -13 27 -19 30 -11 7 -41 64 -41 78 0 4 6 8 13 8 8 0 18 25 26 63 7 34 17
70 22 79 5 10 9 26 9 35 0 10 9 24 20 31 14 8 20 23 20 46 0 25 5 36 19 41 11
3 21 18 24 38 11 65 24 84 61 91 25 5 34 11 30 21 -9 24 25 30 58 11 16 -10
36 -15 44 -12 9 3 21 3 27 -1 7 -4 30 -8 52 -10 22 -1 92 -7 155 -13 63 -6
133 -9 155 -6 240 31 261 32 283 23 18 -8 27 -6 45 11 24 23 57 30 57 12 0
-18 52 -11 57 8 4 18 81 42 135 42 15 0 40 11 56 25 38 31 62 32 95 1 30 -28
32 -26 42 27 8 40 28 48 65 25 25 -16 50 3 32 24 -15 18 -3 35 28 39 14 2 29
14 35 26 5 12 25 29 45 37 60 28 84 44 92 65 8 22 74 55 94 47 14 -5 49 28 73
69 11 18 33 36 56 44 40 14 74 46 75 69 0 6 8 12 18 12 24 0 48 27 58 63 3 16
13 31 20 34 15 6 18 41 6 60 -4 6 -19 16 -33 22 -20 7 -32 5 -55 -10 -16 -10
-37 -19 -46 -19 -9 0 -24 -10 -32 -22 -12 -17 -24 -22 -52 -20 -32 3 -36 0
-31 -18 4 -16 0 -20 -18 -20 -14 0 -25 7 -28 18 -3 11 -5 7 -6 -10 -2 -40 -11
-58 -30 -58 -10 0 -30 -13 -44 -30 -28 -31 -42 -37 -51 -21 -7 11 -79 -4 -84
-18 -5 -15 -158 -91 -182 -91 -12 0 -25 -10 -32 -24 -9 -20 -16 -24 -38 -19
-23 4 -28 2 -27 -13 2 -15 -5 -19 -35 -20 -24 0 -46 -8 -61 -22 -26 -25 -47
-28 -65 -10 -9 9 -16 8 -30 -5 -10 -9 -28 -17 -40 -17 -12 0 -29 -8 -39 -18
-25 -26 -203 -66 -189 -43 5 7 -2 11 -18 11 -14 0 -26 -5 -26 -11 0 -7 -24
-10 -67 -8 -38 1 -84 -1 -104 -5 -26 -6 -46 -3 -69 9 -22 12 -56 17 -106 16
-61 -1 -73 2 -76 17 -2 9 -12 17 -23 17 -16 0 -20 7 -20 35 0 31 3 35 24 32
21 -2 23 1 19 29 -4 25 -1 32 19 40 17 6 23 16 23 37 0 28 40 79 53 66 3 -3 3
3 0 15 -4 16 2 25 25 38 19 11 41 39 58 75 15 32 35 60 43 63 17 5 51 58 51
78 0 7 19 25 41 42 22 16 49 45 61 62 11 18 26 33 34 33 8 0 14 5 14 11 0 18
45 66 57 62 6 -2 28 23 50 56 27 43 44 61 60 61 14 0 24 9 31 29 10 29 13 30
69 30 32 0 85 7 118 15 36 10 95 16 147 15 48 -1 93 3 100 8 20 16 61 23 73
13 12 -10 72 7 96 27 24 19 90 43 120 43 22 0 32 6 39 25 5 14 16 25 24 25 7
0 22 12 32 28 10 15 24 33 31 40 21 22 15 47 -18 71 -16 12 -34 33 -39 45 -10
28 -60 40 -107 27 -22 -6 -35 -6 -39 1 -4 7 -30 8 -70 4 -51 -5 -64 -4 -71 9
-8 14 -12 13 -28 -5 -21 -23 -53 -26 -61 -5 -9 22 60 115 85 115 5 0 11 -6 14
-12 5 -14 11 -2 21 44 4 17 16 29 35 36 23 8 31 19 37 46 4 26 11 36 25 36 11
0 34 21 56 51 20 28 47 55 60 60 13 5 23 12 22 16 -4 25 2 35 14 24 16 -13 27
-5 27 20 0 22 29 39 64 39 14 0 30 8 35 18 6 9 11 11 11 5 0 -7 6 -13 13 -13
13 0 57 88 57 113 0 27 31 36 59 18z m-3160 -248 c-5 -32 -8 -87 -8 -122 1
-49 -3 -68 -15 -76 -9 -7 -16 -26 -16 -44 0 -17 -4 -31 -9 -31 -5 0 -12 -8
-15 -17 -4 -10 -13 -30 -22 -45 -10 -19 -12 -33 -6 -45 6 -11 5 -43 -1 -83 -6
-36 -9 -102 -8 -147 1 -47 -3 -84 -9 -88 -6 -4 -10 8 -10 32 0 63 -15 70 -32
16 -9 -26 -21 -47 -27 -45 -6 1 -11 -5 -11 -14 0 -8 5 -12 11 -9 5 4 19 -1 30
-11 11 -10 19 -12 19 -6 0 7 5 12 11 12 7 0 9 -13 5 -37 -24 -138 -29 -220
-30 -478 -1 -247 1 -292 14 -302 10 -8 15 -30 15 -70 0 -38 5 -62 14 -69 9 -7
12 -20 8 -35 -4 -16 1 -36 13 -56 14 -23 19 -53 21 -119 3 -116 7 -134 26
-127 22 9 43 -24 37 -56 -3 -14 2 -45 10 -68 9 -24 12 -57 9 -77 -8 -48 4 -85
30 -97 25 -11 50 -56 36 -65 -19 -11 -9 -35 13 -32 21 3 23 -2 30 -52 4 -34 3
-57 -4 -61 -7 -4 -6 -19 3 -43 11 -29 11 -41 1 -56 -16 -26 -15 -40 3 -40 12
0 15 -14 15 -62 0 -57 -2 -64 -31 -88 -26 -21 -32 -35 -37 -78 l-5 -52 -51 0
-52 0 4 -66 c4 -60 3 -66 -17 -71 -11 -3 -21 -9 -21 -14 0 -5 -7 -9 -16 -9
-10 0 -13 6 -10 18 8 23 -115 148 -137 139 -9 -3 -28 -2 -44 2 -26 7 -28 11
-33 72 -4 50 -9 65 -22 67 -11 2 -18 -3 -18 -12 0 -9 -7 -16 -16 -16 -12 0
-15 6 -10 23 3 12 -1 35 -8 49 -15 29 -10 38 28 52 15 5 17 13 12 38 -8 39 -8
39 -47 47 -44 9 -57 32 -39 66 13 24 13 28 -3 40 -13 9 -17 27 -17 68 0 59
-15 81 -35 54 -16 -22 -22 -21 -28 3 -3 12 -14 20 -26 20 -19 0 -21 6 -21 64
0 48 -4 65 -15 70 -11 4 -15 22 -15 71 0 49 4 67 15 71 11 5 15 22 15 69 0 62
-1 64 -27 67 -30 3 -40 26 -42 95 -1 23 -5 45 -11 48 -5 3 -10 35 -10 69 0 55
3 64 20 69 18 5 20 13 19 74 -1 37 -4 55 -6 38 -9 -71 -11 -75 -48 -75 -30 0
-35 3 -35 25 0 34 20 74 41 80 15 5 19 19 21 73 3 61 5 67 26 70 26 4 30 33 7
52 -8 7 -18 30 -21 51 -4 22 -10 39 -15 39 -11 0 -12 33 -1 45 28 33 45 216
21 231 -8 4 -10 41 -7 115 4 97 7 112 28 133 16 19 21 32 17 53 -7 35 27 110
54 118 17 6 19 16 19 88 0 86 12 128 25 88 9 -29 24 -26 35 7 6 15 15 35 20
44 6 10 10 29 10 43 0 19 7 26 33 33 26 7 33 14 35 38 2 20 16 39 48 64 24 19
44 38 44 42 0 5 9 17 21 29 20 20 21 20 34 2 19 -25 44 -9 72 47 33 64 61 90
98 90 l32 0 -8 -57z m-4764 -343 c0 -18 -33 -26 -47 -12 -6 6 -7 15 -3 22 10
16 50 8 50 -10z m-47 -144 c3 -20 0 -27 -10 -24 -7 3 -14 17 -16 32 -3 20 0
27 10 24 7 -3 14 -17 16 -32z m-871 -222 c9 -24 -10 -48 -39 -52 -22 -3 -26 2
-30 28 -5 37 -3 40 34 40 17 0 31 -6 35 -16z m323 -223 c0 -5 3 -16 6 -25 4
-12 0 -16 -15 -16 -16 0 -21 6 -21 25 0 16 6 25 15 25 8 0 15 -4 15 -9z m6570
-97 c0 -8 -4 -12 -10 -9 -5 3 -10 10 -10 16 0 5 5 9 10 9 6 0 10 -7 10 -16z
m-6570 -70 c0 -8 -7 -14 -15 -14 -11 0 -15 11 -15 43 l0 42 15 -29 c8 -15 15
-35 15 -42z m4740 11 c0 -14 -4 -25 -10 -25 -11 0 -14 33 -3 43 11 11 13 8 13
-18z m-6873 -17 c-3 -8 -6 -5 -6 6 -1 11 2 17 5 13 3 -3 4 -12 1 -19z m7390
-115 c-3 -10 -5 -4 -5 12 0 17 2 24 5 18 2 -7 2 -21 0 -30z m-4440 -25 c-3 -8
-6 -5 -6 6 -1 11 2 17 5 13 3 -3 4 -12 1 -19z m3243 1 c0 -5 -4 -9 -10 -9 -5
0 -10 7 -10 16 0 8 5 12 10 9 6 -3 10 -10 10 -16z m-1800 -19 c0 -5 -5 -10
-11 -10 -5 0 -7 5 -4 10 3 6 8 10 11 10 2 0 4 -4 4 -10z m1755 -140 c8 -9 18
-31 21 -48 4 -18 13 -32 21 -32 10 0 13 -9 11 -27 -3 -24 -8 -28 -33 -28 -27
0 -31 4 -40 40 -6 22 -16 51 -24 64 -12 21 -11 26 3 36 11 9 17 30 18 76 l2
64 3 -65 c3 -37 10 -71 18 -80z m1675 125 c0 -8 -7 -15 -15 -15 -8 0 -15 7
-15 15 0 8 7 15 15 15 8 0 15 -7 15 -15z m-4880 -110 l0 -75 -35 0 c-33 0 -35
-2 -35 -34 0 -21 6 -36 15 -40 11 -4 15 -22 15 -69 0 -35 4 -67 9 -72 5 -6 11
-37 14 -70 2 -33 2 -48 0 -32 -4 26 -7 27 -59 27 l-54 0 0 34 c0 19 5 38 10
41 6 3 10 35 10 70 0 47 -4 64 -15 69 -9 3 -15 19 -15 41 0 33 2 35 35 35 32
0 35 2 35 29 0 17 -4 32 -9 35 -23 15 33 82 72 85 4 1 7 -33 7 -74z m3260 20
l23 -25 -26 0 c-22 0 -27 5 -27 25 0 14 1 25 3 25 2 0 14 -11 27 -25z m-3830
-45 c0 -5 -4 -10 -9 -10 -6 0 -13 5 -16 10 -3 6 1 10 9 10 9 0 16 -4 16 -10z
m3850 -194 c0 -36 5 -68 10 -71 8 -5 7 -11 -1 -21 -23 -28 -34 1 -31 80 4 92
22 102 22 12z m-1770 -66 c0 -5 -4 -10 -10 -10 -5 0 -10 5 -10 10 0 6 5 10 10
10 6 0 10 -4 10 -10z m115 -22 c-17 -57 -22 -101 -17 -176 4 -68 7 -81 23 -85
16 -4 19 -15 19 -65 0 -50 3 -61 18 -64 9 -2 -12 -8 -47 -12 l-64 -7 64 -65
c55 -56 60 -64 40 -64 -28 0 -50 -26 -51 -57 0 -18 -6 -23 -24 -23 -13 0 -27
6 -29 13 -3 6 -6 -2 -6 -20 -2 -66 -21 -81 -45 -35 -18 33 -20 20 -5 -46 10
-42 9 -53 -5 -73 -9 -13 -16 -31 -16 -40 0 -27 -31 -32 -47 -9 -18 26 -33 17
-33 -21 0 -23 -4 -29 -22 -29 -26 0 -68 -37 -68 -60 0 -9 -3 -20 -7 -24 -5 -4
-8 -18 -8 -29 0 -18 -8 -24 -40 -30 -58 -13 -69 -21 -75 -53 -5 -26 -9 -29
-50 -32 -34 -2 -50 -9 -67 -29 -18 -23 -24 -25 -37 -14 -9 8 -16 20 -16 27 0
23 -28 16 -32 -8 -3 -20 -11 -24 -63 -30 -69 -9 -92 -28 -97 -78 l-3 -35 50 0
c50 0 114 -27 122 -52 2 -6 -8 -18 -24 -26 -27 -15 -27 -16 -24 -97 l3 -81
-34 3 -33 3 -5 70 c-4 60 -8 70 -24 70 -13 0 -23 -11 -30 -33 -22 -65 -58 -63
-75 3 -6 24 -16 47 -22 51 -15 9 -29 -14 -29 -47 0 -15 -7 -29 -14 -32 -8 -3
-18 -23 -21 -44 -11 -63 -13 -67 -30 -53 -17 14 -20 66 -5 75 17 10 12 75 -5
75 -8 0 -15 5 -15 10 0 6 6 10 13 10 19 0 37 49 37 102 0 52 11 60 42 31 15
-14 18 -14 18 -1 0 26 31 78 46 78 14 0 19 17 15 57 -3 33 16 37 52 9 38 -29
67 -34 67 -11 0 9 -9 15 -24 15 -32 0 -38 11 -30 59 6 35 10 41 30 41 20 0 24
5 24 33 0 30 17 64 47 96 8 7 11 22 8 32 -8 24 0 24 27 -1 17 -15 36 -20 80
-20 34 0 58 4 58 11 0 5 -12 9 -27 8 -58 -4 -71 0 -66 20 7 28 42 58 51 44 4
-6 16 -13 27 -15 18 -3 20 4 25 72 l5 74 36 11 c56 16 66 30 79 108 17 104 18
106 19 65 0 -21 4 -38 9 -38 10 0 32 50 32 75 0 12 14 42 31 68 17 27 29 56
27 69 -2 19 2 23 22 23 23 0 25 4 26 50 1 72 2 75 24 75 13 0 25 12 35 36 13
31 18 35 39 30 27 -7 76 29 76 56 0 20 10 28 33 28 15 0 18 -4 12 -22z m-1761
-46 c10 -89 -24 -152 -47 -88 -6 15 -15 18 -52 14 l-45 -6 0 69 0 69 69 0 68
0 7 -58z m276 49 c0 -17 -18 -21 -24 -6 -3 9 0 15 9 15 8 0 15 -4 15 -9z
m6040 -11 c0 -5 -4 -10 -10 -10 -5 0 -10 5 -10 10 0 6 5 10 10 10 6 0 10 -4
10 -10z m-11643 -36 c-9 -9 -28 6 -21 18 4 6 10 6 17 -1 6 -6 8 -13 4 -17z
m7163 -30 c0 -24 -19 -54 -35 -54 -22 0 -20 57 3 63 30 8 32 7 32 -9z m-7110
-9 c16 -8 35 -12 43 -10 17 7 69 -33 61 -46 -6 -11 -82 -3 -123 13 -24 8 -50
35 -51 51 0 12 39 8 70 -8z m5536 -20 c27 -26 8 -55 -34 -55 -29 0 -39 -5 -47
-22 -15 -34 -45 -36 -45 -4 0 21 5 26 25 26 20 0 25 5 25 25 0 39 48 58 76 30z
m-4459 -47 c-3 -7 -5 -2 -5 12 0 14 2 19 5 13 2 -7 2 -19 0 -25z m7594 -75
c11 -31 -1 -49 -26 -39 -11 4 -15 12 -11 22 3 9 6 22 6 30 0 24 20 16 31 -13z
m-39 -131 c3 -10 3 -55 0 -100 l-5 -82 -63 0 -64 0 0 100 0 100 64 0 c53 0 64
-3 68 -18z m-2982 -163 c0 -14 -7 -19 -25 -19 -29 0 -31 7 -9 31 19 21 34 16
34 -12z m7536 -50 c10 -17 -13 -36 -27 -22 -12 12 -4 33 11 33 5 0 12 -5 16
-11z m-10506 -143 c0 -47 -68 -106 -100 -86 -18 11 -2 50 20 50 11 0 29 14 42
30 26 36 38 38 38 6z m4340 20 c0 -11 -19 -15 -25 -6 -3 5 1 10 9 10 9 0 16
-2 16 -4z m1614 -68 c13 -49 7 -70 -16 -66 -27 4 -33 24 -19 61 13 33 27 35
35 5z m-6047 -90 c-3 -8 -6 -5 -6 6 -1 11 2 17 5 13 3 -3 4 -12 1 -19z m-117
-62 c0 -8 -4 -18 -10 -21 -5 -3 -10 -19 -10 -34 0 -16 -7 -42 -15 -57 -8 -16
-15 -39 -15 -51 0 -26 -4 -29 -52 -38 -41 -8 -57 9 -42 43 4 9 12 35 18 56 9
34 17 41 46 49 19 5 29 12 23 14 -14 5 -18 35 -6 46 13 13 63 7 63 -7z m1868
-19 c22 -18 13 -35 -23 -39 -34 -4 -35 -3 -35 28 0 28 3 31 23 27 12 -3 28
-10 35 -16z m1908 -4 c-10 -10 -19 5 -10 18 6 11 8 11 12 0 2 -7 1 -15 -2 -18z
m-3936 -23 c0 -5 -5 -10 -11 -10 -5 0 -7 5 -4 10 3 6 8 10 11 10 2 0 4 -4 4
-10z m-7 -167 c-7 -2 -19 -2 -25 0 -7 3 -2 5 12 5 14 0 19 -2 13 -5z m3977
-108 c10 -13 9 -15 -9 -15 -12 0 -21 6 -21 15 0 8 4 15 9 15 5 0 14 -7 21 -15z
m243 -125 c3 -11 1 -20 -4 -20 -5 0 -9 9 -9 20 0 11 2 20 4 20 2 0 6 -9 9 -20z
m-48 -61 c21 -33 -26 -86 -65 -74 -28 9 -25 40 8 64 30 23 48 26 57 10z m7180
-119 c3 -5 -1 -10 -9 -10 -9 0 -16 5 -16 10 0 6 4 10 9 10 6 0 13 -4 16 -10z
m-1765 -360 c0 -5 -4 -10 -10 -10 -5 0 -10 5 -10 10 0 6 5 10 10 10 6 0 10 -4
10 -10z m-13460 -165 c0 -14 -4 -25 -10 -25 -11 0 -14 33 -3 43 11 11 13 8 13
-18z m13466 -216 c24 -6 44 -17 44 -23 0 -7 17 -17 38 -22 l37 -9 -4 -85 c-2
-47 -7 -90 -12 -96 -12 -14 18 -74 37 -74 9 0 14 -11 14 -29 0 -24 -5 -30 -30
-34 -42 -9 -60 1 -60 33 0 19 -6 29 -19 33 -14 3 -21 15 -23 38 -2 27 -8 35
-27 37 -13 2 -27 0 -32 -5 -10 -10 32 -131 49 -142 9 -5 5 -14 -13 -31 -14
-13 -25 -29 -25 -37 0 -17 -6 -16 -41 4 -16 10 -29 25 -29 34 0 9 -7 20 -16
23 -28 11 -54 6 -54 -9 0 -13 -12 -15 -67 -13 -71 3 -100 24 -41 30 l33 3 3
68 c2 50 0 67 -10 67 -7 0 -23 3 -35 6 -22 6 -23 4 -23 -64 0 -62 -2 -71 -20
-77 -15 -5 -20 -15 -20 -38 0 -18 -7 -43 -17 -56 -13 -19 -14 -28 -4 -42 9
-16 8 -19 -7 -19 -11 0 -24 15 -35 40 -20 47 -37 52 -37 10 0 -28 -3 -30 -35
-30 l-35 0 0 65 0 64 35 7 35 6 0 64 0 64 50 0 50 0 0 69 c0 46 5 72 14 80 16
14 26 -12 26 -71 l0 -37 67 -3 c59 -3 68 -6 71 -23 12 -74 42 -23 42 71 0 51
3 64 16 64 21 0 7 19 -22 30 -35 14 -30 33 14 52 46 20 61 21 118 7z m-571
-218 c3 -5 1 -12 -5 -16 -5 -3 -10 -35 -10 -71 0 -36 -4 -64 -10 -64 -5 0 -10
14 -10 30 0 17 -5 30 -11 30 -14 0 -49 39 -49 54 0 13 49 44 72 45 9 1 19 -3
23 -8z m1108 -33 c3 -12 4 -25 1 -30 -9 -13 -34 12 -34 33 0 26 26 24 33 -3z
m-1236 -124 c-12 -12 -37 5 -30 21 5 15 7 15 21 1 9 -9 13 -18 9 -22z m1053
-4 c0 -5 -9 -10 -21 -10 -11 0 -17 5 -14 10 3 6 13 10 21 10 8 0 14 -4 14 -10z
m-9370 -85 c0 -25 -4 -45 -9 -45 -10 0 -21 59 -14 78 11 27 23 9 23 -33z
m-3170 -80 c0 -8 -4 -15 -10 -15 -5 0 -7 7 -4 15 4 8 8 15 10 15 2 0 4 -7 4
-15z m1052 -17 c-7 -7 -12 -8 -12 -2 0 14 12 26 19 19 2 -3 -1 -11 -7 -17z
m2145 6 c-3 -3 -12 -4 -19 -1 -8 3 -5 6 6 6 11 1 17 -2 13 -5z"/>
<path d="M10247 13032 c-20 -22 -22 -52 -4 -52 20 0 37 22 37 47 0 28 -11 29
-33 5z"/>
<path d="M10740 12563 c0 -26 -48 -123 -60 -123 -6 0 -10 -8 -10 -19 0 -10 -8
-29 -19 -42 -10 -13 -20 -41 -23 -63 -4 -34 -1 -41 25 -56 28 -18 31 -18 63 1
l35 19 9 -26 c6 -14 10 -30 10 -35 0 -5 5 -9 10 -9 6 0 10 -12 10 -26 0 -18
-6 -28 -20 -31 -30 -8 -19 -27 17 -31 24 -2 32 1 36 17 3 12 12 21 21 21 10 0
16 9 16 25 0 14 5 25 10 25 6 0 10 7 10 16 0 11 5 14 16 10 9 -3 31 -6 49 -6
31 0 35 -3 41 -36 4 -19 13 -38 20 -41 8 -3 14 -12 14 -21 0 -11 3 -13 11 -5
5 5 9 30 7 54 -3 40 -6 44 -32 47 -26 3 -28 6 -21 35 4 18 9 65 12 105 l5 72
-36 0 -36 0 0 -70 c0 -38 -3 -70 -7 -71 -5 0 -55 -1 -113 -1 -91 -1 -105 1
-108 15 -2 9 6 29 17 43 12 15 21 40 21 55 0 20 5 29 15 29 13 0 15 12 13 67
-2 42 -8 68 -15 71 -8 2 -13 -5 -13 -15z"/>
<path d="M11057 12574 c-4 -4 -7 -35 -7 -70 0 -34 -4 -64 -8 -66 -4 -1 -6 -27
-4 -55 l4 -53 63 0 c61 0 63 0 69 30 4 23 11 30 29 30 22 0 47 16 47 31 0 4
-20 10 -45 13 l-44 7 -3 67 -3 67 -45 3 c-25 2 -49 0 -53 -4z"/>
<path d="M12771 12498 c0 -13 4 -32 8 -43 7 -18 9 -16 15 12 8 33 2 53 -15 53
-5 0 -9 -10 -8 -22z"/>
<path d="M10610 12461 c0 -6 5 -13 10 -16 6 -3 10 1 10 9 0 9 -4 16 -10 16 -5
0 -10 -4 -10 -9z"/>
<path d="M11320 12315 c0 -7 -16 -16 -35 -19 -31 -6 -35 -11 -35 -36 0 -28 3
-30 35 -30 33 0 35 2 35 34 0 29 4 35 25 38 l25 3 -25 12 c-20 9 -25 8 -25 -2z"/>
<path d="M10678 12163 c7 -3 16 -2 19 1 4 3 -2 6 -13 5 -11 0 -14 -3 -6 -6z"/>
<path d="M10897 12140 c-4 -15 -13 -20 -41 -20 l-36 0 0 -50 c0 -45 3 -50 25
-56 43 -11 52 0 58 73 5 70 3 89 -6 53z"/>
<path d="M10573 12143 c9 -2 23 -2 30 0 6 3 -1 5 -18 5 -16 0 -22 -2 -12 -5z"/>
<path d="M11461 12104 c0 -11 3 -14 6 -6 3 7 2 16 -1 19 -3 4 -6 -2 -5 -13z"/>
<path d="M10950 12035 c0 -8 7 -15 15 -15 8 0 15 7 15 15 0 8 -7 15 -15 15 -8
0 -15 -7 -15 -15z"/>
<path d="M11321 11854 c0 -11 3 -14 6 -6 3 7 2 16 -1 19 -3 4 -6 -2 -5 -13z"/>
<path d="M11441 11854 c0 -11 3 -14 6 -6 3 7 2 16 -1 19 -3 4 -6 -2 -5 -13z"/>
<path d="M12144 11787 c-17 -45 20 -107 48 -79 9 9 9 15 0 24 -7 7 -12 20 -12
29 0 9 -7 22 -15 29 -12 10 -16 9 -21 -3z"/>
<path d="M11370 11755 c0 -8 7 -15 15 -15 8 0 15 7 15 15 0 8 -7 15 -15 15 -8
0 -15 -7 -15 -15z"/>
<path d="M11461 11574 c0 -11 3 -14 6 -6 3 7 2 16 -1 19 -3 4 -6 -2 -5 -13z"/>
<path d="M11565 11200 c-20 -22 -15 -36 10 -27 8 4 15 16 15 27 0 25 -2 25
-25 0z"/>
<path d="M11742 11143 c3 -35 6 -38 36 -41 30 -3 32 -2 32 31 0 27 -5 36 -22
41 -44 11 -49 8 -46 -31z"/>
<path d="M9210 13269 c0 -5 5 -7 10 -4 6 3 10 8 10 11 0 2 -4 4 -10 4 -5 0
-10 -5 -10 -11z"/>
<path d="M9100 11711 c0 -29 18 -36 41 -15 27 24 24 34 -11 34 -23 0 -30 -5
-30 -19z"/>
<path d="M9051 11614 c0 -11 3 -14 6 -6 3 7 2 16 -1 19 -3 4 -6 -2 -5 -13z"/>
<path d="M9071 11474 c0 -11 3 -14 6 -6 3 7 2 16 -1 19 -3 4 -6 -2 -5 -13z"/>
<path d="M8790 8930 c0 -5 7 -7 15 -4 8 4 15 8 15 10 0 2 -7 4 -15 4 -8 0 -15
-4 -15 -10z"/>
<path d="M5340 12870 c-15 -28 -6 -36 23 -22 12 6 30 12 40 14 33 5 23 23 -15
26 -29 2 -39 -1 -48 -18z"/>
<path d="M6658 11883 c7 -3 16 -2 19 1 4 3 -2 6 -13 5 -11 0 -14 -3 -6 -6z"/>
<path d="M5387 11646 c-6 -15 1 -26 15 -26 4 0 8 9 8 20 0 23 -15 27 -23 6z"/>
<path d="M5069 11476 c-7 -14 -9 -36 -5 -50 5 -20 13 -26 35 -26 34 0 44 19
35 66 -5 27 -11 34 -30 34 -16 0 -28 -8 -35 -24z"/>
<path d="M4790 11153 c0 -10 5 -25 10 -33 9 -13 13 -12 30 9 27 32 25 41 -10
41 -22 0 -30 -5 -30 -17z"/>
<path d="M6680 8757 l0 -30 25 23 c14 13 25 24 25 26 0 1 -11 4 -25 6 -22 5
-25 2 -25 -25z"/>
<path d="M7066 8543 c-3 -10 -9 -24 -12 -30 -4 -9 3 -13 21 -13 23 0 26 4 23
27 -4 31 -23 41 -32 16z"/>
<path d="M3576 9761 c-18 -7 -18 -8 -3 -14 14 -5 17 -21 17 -87 0 -44 3 -80 8
-80 4 0 21 9 37 20 29 20 30 20 8 26 -21 6 -23 12 -23 75 0 72 -3 76 -44 60z"/>
<path d="M5821 8714 c0 -11 3 -14 6 -6 3 7 2 16 -1 19 -3 4 -6 -2 -5 -13z"/>
<path d="M16660 11584 c0 -8 5 -12 10 -9 6 4 8 11 5 16 -9 14 -15 11 -15 -7z"/>
<path d="M16605 11510 c4 -6 11 -8 16 -5 14 9 11 15 -7 15 -8 0 -12 -5 -9 -10z"/>
<path d="M17000 12135 c0 -8 5 -15 10 -15 6 0 10 7 10 15 0 8 -4 15 -10 15 -5
0 -10 -7 -10 -15z"/>
<path d="M18200 13270 c0 -5 5 -10 10 -10 6 0 10 5 10 10 0 6 -4 10 -10 10 -5
0 -10 -4 -10 -10z"/>
<path d="M17824 11125 c-8 -21 4 -35 32 -35 19 0 24 5 24 25 0 20 -5 25 -25
25 -14 0 -28 -7 -31 -15z"/>
<path d="M18855 11020 c4 -6 11 -8 16 -5 14 9 11 15 -7 15 -8 0 -12 -5 -9 -10z"/>
<path d="M17828 10593 c7 -3 16 -2 19 1 4 3 -2 6 -13 5 -11 0 -14 -3 -6 -6z"/>
<path d="M19340 10382 c0 -15 11 -21 27 -15 12 5 12 7 1 14 -17 11 -28 11 -28
1z"/>
<path d="M18638 10173 c6 -2 18 -2 25 0 6 3 1 5 -13 5 -14 0 -19 -2 -12 -5z"/>
<path d="M18340 10040 c0 -5 5 -10 10 -10 6 0 10 5 10 10 0 6 -4 10 -10 10 -5
0 -10 -4 -10 -10z"/>
<path d="M19195 9920 c-3 -5 1 -10 10 -10 9 0 13 5 10 10 -3 6 -8 10 -10 10
-2 0 -7 -4 -10 -10z"/>
<path d="M16673 9753 c9 -2 23 -2 30 0 6 3 -1 5 -18 5 -16 0 -22 -2 -12 -5z"/>
<path d="M19040 9466 c0 -30 15 -42 24 -20 10 27 7 44 -9 44 -9 0 -15 -9 -15
-24z"/>
<path d="M18611 9464 c0 -11 3 -14 6 -6 3 7 2 16 -1 19 -3 4 -6 -2 -5 -13z"/>
<path d="M17933 9135 c0 -38 2 -53 4 -32 2 20 2 52 0 70 -2 17 -4 1 -4 -38z"/>
<path d="M15543 12110 c0 -30 2 -43 4 -27 2 15 2 39 0 55 -2 15 -4 2 -4 -28z"/>
<path d="M15550 11999 c0 -5 5 -7 10 -4 6 3 10 8 10 11 0 2 -4 4 -10 4 -5 0
-10 -5 -10 -11z"/>
<path d="M15822 10790 c0 -14 2 -19 5 -12 2 6 2 18 0 25 -3 6 -5 1 -5 -13z"/>
<path d="M12581 11304 c1 -11 4 -31 8 -45 5 -22 10 -25 27 -18 26 9 60 69 39
69 -7 0 -27 3 -44 6 -26 6 -31 4 -30 -12z"/>
<path d="M12726 11295 c4 -8 8 -15 10 -15 2 0 4 7 4 15 0 8 -4 15 -10 15 -5 0
-7 -7 -4 -15z"/>
<path d="M12574 11014 c3 -9 6 -19 6 -22 0 -9 20 21 20 31 0 4 -7 7 -16 7 -11
0 -14 -5 -10 -16z"/>
<path d="M12285 10600 c-4 -7 0 -19 9 -28 15 -15 18 -15 38 6 18 18 20 22 6
22 -9 0 -23 3 -31 6 -8 3 -18 0 -22 -6z"/>
<path d="M12165 10590 c-3 -5 -1 -10 4 -10 6 0 11 5 11 10 0 6 -2 10 -4 10 -3
0 -8 -4 -11 -10z"/>
<path d="M12110 10539 c0 -15 5 -20 22 -17 34 5 37 38 4 38 -20 0 -26 -5 -26
-21z"/>
<path d="M12217 10504 c-13 -13 -7 -24 14 -24 11 0 19 5 17 12 -5 14 -22 21
-31 12z"/>
<path d="M11933 10265 c-3 -9 -3 -18 0 -22 10 -10 37 6 37 22 0 20 -29 20 -37
0z"/>
<path d="M17658 9213 c7 -3 16 -2 19 1 4 3 -2 6 -13 5 -11 0 -14 -3 -6 -6z"/>
<path d="M17553 8945 c-3 -9 -3 -18 0 -22 10 -10 37 6 37 22 0 20 -29 20 -37
0z"/>
<path d="M4882 8220 c0 -14 2 -19 5 -12 2 6 2 18 0 25 -3 6 -5 1 -5 -13z"/>
</g>
</svg>
